<svg width="1142" height="680" viewBox="0 0 1142 680" fill="none" xmlns="http://www.w3.org/2000/svg">
<path d="M71.968 74.36C71.296 74.36 70.824 74.224 70.552 73.952C70.296 73.68 70.168 73.344 70.168 72.944V72.44C70.168 72.04 70.296 71.704 70.552 71.432C70.824 71.16 71.288 71.024 71.944 71.024C72.616 71.024 73.08 71.16 73.336 71.432C73.608 71.704 73.744 72.04 73.744 72.44V72.944C73.744 73.344 73.608 73.68 73.336 73.952C73.08 74.224 72.624 74.36 71.968 74.36ZM66.424 86.888H70.648V78.728H66.424V76.616H73.264V86.888H77.224V89H66.424V86.888ZM80.4066 89V76.616H83.0226V78.728H83.1426C83.2706 78.408 83.4306 78.104 83.6226 77.816C83.8306 77.512 84.0786 77.256 84.3666 77.048C84.6546 76.824 84.9906 76.648 85.3746 76.52C85.7586 76.392 86.2066 76.328 86.7186 76.328C87.9666 76.328 88.9746 76.736 89.7426 77.552C90.5106 78.368 90.8946 79.528 90.8946 81.032V89H88.2786V81.416C88.2786 79.448 87.4226 78.464 85.7106 78.464C85.3746 78.464 85.0466 78.512 84.7266 78.608C84.4066 78.688 84.1186 78.816 83.8626 78.992C83.6066 79.168 83.3986 79.392 83.2386 79.664C83.0946 79.936 83.0226 80.248 83.0226 80.6V89H80.4066ZM100.725 89C99.6373 89 98.8373 88.712 98.3253 88.136C97.8133 87.544 97.5573 86.784 97.5573 85.856V78.728H93.7413V76.616H96.4533C96.9173 76.616 97.2453 76.528 97.4373 76.352C97.6293 76.16 97.7253 75.824 97.7253 75.344V72.248H100.173V76.616H105.453V78.728H100.173V86.888H105.453V89H100.725ZM114.636 89.288C113.692 89.288 112.844 89.136 112.092 88.832C111.34 88.528 110.708 88.096 110.196 87.536C109.684 86.976 109.292 86.304 109.02 85.52C108.748 84.72 108.612 83.824 108.612 82.832C108.612 81.84 108.748 80.944 109.02 80.144C109.308 79.344 109.7 78.664 110.196 78.104C110.708 77.528 111.324 77.088 112.044 76.784C112.764 76.48 113.564 76.328 114.444 76.328C115.308 76.328 116.092 76.48 116.796 76.784C117.5 77.072 118.1 77.488 118.596 78.032C119.092 78.576 119.468 79.224 119.724 79.976C119.996 80.728 120.132 81.56 120.132 82.472V83.456H111.252V83.864C111.252 84.84 111.556 85.64 112.164 86.264C112.772 86.872 113.612 87.176 114.684 87.176C115.484 87.176 116.164 87.008 116.724 86.672C117.3 86.32 117.764 85.856 118.116 85.28L119.748 86.72C119.332 87.44 118.692 88.048 117.828 88.544C116.98 89.04 115.916 89.288 114.636 89.288ZM114.444 78.32C113.98 78.32 113.548 78.4 113.148 78.56C112.764 78.72 112.428 78.952 112.14 79.256C111.868 79.544 111.652 79.888 111.492 80.288C111.332 80.688 111.252 81.128 111.252 81.608V81.776H117.468V81.536C117.468 80.56 117.188 79.784 116.628 79.208C116.084 78.616 115.356 78.32 114.444 78.32ZM123.387 86.888H126.675V78.728H123.387V76.616H129.291V79.904H129.435C129.547 79.472 129.707 79.056 129.915 78.656C130.123 78.256 130.387 77.912 130.707 77.624C131.027 77.32 131.419 77.08 131.883 76.904C132.347 76.712 132.891 76.616 133.515 76.616H135.003V79.112H132.555C131.595 79.112 130.811 79.4 130.203 79.976C129.595 80.536 129.291 81.296 129.291 82.256V86.888H133.779V89H123.387V86.888ZM136.433 76.616H138.665L139.865 87.032H140.081L141.929 76.616H144.473L146.297 87.032H146.513L147.737 76.616H149.873L148.145 89H144.929L143.273 79.4H143.057L141.377 89H138.161L136.433 76.616ZM157.808 89.288C156.864 89.288 156.016 89.136 155.264 88.832C154.512 88.528 153.88 88.096 153.368 87.536C152.856 86.976 152.464 86.304 152.192 85.52C151.92 84.72 151.784 83.824 151.784 82.832C151.784 81.84 151.92 80.944 152.192 80.144C152.48 79.344 152.872 78.664 153.368 78.104C153.88 77.528 154.496 77.088 155.216 76.784C155.936 76.48 156.736 76.328 157.616 76.328C158.48 76.328 159.264 76.48 159.968 76.784C160.672 77.072 161.272 77.488 161.768 78.032C162.264 78.576 162.64 79.224 162.896 79.976C163.168 80.728 163.304 81.56 163.304 82.472V83.456H154.424V83.864C154.424 84.84 154.728 85.64 155.336 86.264C155.944 86.872 156.784 87.176 157.856 87.176C158.656 87.176 159.336 87.008 159.896 86.672C160.472 86.32 160.936 85.856 161.288 85.28L162.92 86.72C162.504 87.44 161.864 88.048 161 88.544C160.152 89.04 159.088 89.288 157.808 89.288ZM157.616 78.32C157.152 78.32 156.72 78.4 156.32 78.56C155.936 78.72 155.6 78.952 155.312 79.256C155.04 79.544 154.824 79.888 154.664 80.288C154.504 80.688 154.424 81.128 154.424 81.608V81.776H160.64V81.536C160.64 80.56 160.36 79.784 159.8 79.208C159.256 78.616 158.528 78.32 157.616 78.32ZM166.63 71.24H169.246V78.728H169.39C169.758 77.976 170.246 77.392 170.854 76.976C171.462 76.544 172.222 76.328 173.134 76.328C174.59 76.328 175.75 76.872 176.614 77.96C177.478 79.048 177.91 80.664 177.91 82.808C177.91 84.952 177.478 86.568 176.614 87.656C175.75 88.744 174.59 89.288 173.134 89.288C172.222 89.288 171.462 89.08 170.854 88.664C170.246 88.232 169.758 87.64 169.39 86.888H169.246V89H166.63V71.24ZM172.054 87.152C173.046 87.152 173.806 86.848 174.334 86.24C174.878 85.632 175.15 84.824 175.15 83.816V81.8C175.15 80.792 174.878 79.984 174.334 79.376C173.806 78.768 173.046 78.464 172.054 78.464C171.67 78.464 171.31 78.512 170.974 78.608C170.638 78.704 170.342 78.848 170.086 79.04C169.83 79.232 169.622 79.472 169.462 79.76C169.318 80.032 169.246 80.36 169.246 80.744V84.872C169.246 85.256 169.318 85.592 169.462 85.88C169.622 86.152 169.83 86.384 170.086 86.576C170.342 86.768 170.638 86.912 170.974 87.008C171.31 87.104 171.67 87.152 172.054 87.152ZM186.349 89.288C185.005 89.288 183.845 89.072 182.869 88.64C181.909 88.208 181.133 87.632 180.541 86.912L182.149 85.472C182.693 86.064 183.301 86.52 183.973 86.84C184.661 87.144 185.469 87.296 186.397 87.296C187.245 87.296 187.925 87.152 188.437 86.864C188.965 86.576 189.229 86.128 189.229 85.52C189.229 85.264 189.181 85.048 189.085 84.872C188.989 84.696 188.853 84.552 188.677 84.44C188.501 84.328 188.293 84.24 188.053 84.176C187.829 84.112 187.589 84.064 187.333 84.032L185.365 83.72C184.885 83.656 184.397 83.552 183.901 83.408C183.405 83.264 182.957 83.064 182.557 82.808C182.173 82.536 181.853 82.192 181.597 81.776C181.357 81.36 181.237 80.832 181.237 80.192C181.237 78.928 181.717 77.968 182.677 77.312C183.653 76.656 184.933 76.328 186.517 76.328C187.669 76.328 188.661 76.504 189.493 76.856C190.341 77.192 191.045 77.664 191.605 78.272L190.141 79.808C189.821 79.44 189.365 79.104 188.773 78.8C188.181 78.48 187.397 78.32 186.421 78.32C184.677 78.32 183.805 78.872 183.805 79.976C183.805 80.504 183.989 80.872 184.357 81.08C184.741 81.272 185.189 81.4 185.701 81.464L187.669 81.776C188.165 81.856 188.653 81.96 189.133 82.088C189.629 82.216 190.069 82.416 190.453 82.688C190.853 82.944 191.173 83.28 191.413 83.696C191.669 84.112 191.797 84.64 191.797 85.28C191.797 86.528 191.309 87.512 190.333 88.232C189.373 88.936 188.045 89.288 186.349 89.288Z" fill="#9BA1A6"/>
<path d="M657.8 86.888H661.904V73.352H657.8V71.24H664.52V86.888H668.624V89H657.8V86.888ZM677.591 89.288C676.679 89.288 675.855 89.136 675.119 88.832C674.399 88.528 673.783 88.096 673.271 87.536C672.775 86.976 672.391 86.296 672.119 85.496C671.847 84.696 671.711 83.8 671.711 82.808C671.711 81.816 671.847 80.92 672.119 80.12C672.391 79.32 672.775 78.64 673.271 78.08C673.783 77.52 674.399 77.088 675.119 76.784C675.855 76.48 676.679 76.328 677.591 76.328C678.503 76.328 679.319 76.48 680.039 76.784C680.775 77.088 681.391 77.52 681.887 78.08C682.399 78.64 682.791 79.32 683.063 80.12C683.335 80.92 683.471 81.816 683.471 82.808C683.471 83.8 683.335 84.696 683.063 85.496C682.791 86.296 682.399 86.976 681.887 87.536C681.391 88.096 680.775 88.528 680.039 88.832C679.319 89.136 678.503 89.288 677.591 89.288ZM677.591 87.224C678.551 87.224 679.311 86.936 679.871 86.36C680.447 85.768 680.735 84.896 680.735 83.744V81.872C680.735 80.72 680.447 79.856 679.871 79.28C679.311 78.688 678.551 78.392 677.591 78.392C676.631 78.392 675.863 78.688 675.287 79.28C674.727 79.856 674.447 80.72 674.447 81.872V83.744C674.447 84.896 674.727 85.768 675.287 86.36C675.863 86.936 676.631 87.224 677.591 87.224ZM692.437 89.288C691.509 89.288 690.677 89.136 689.941 88.832C689.221 88.528 688.605 88.096 688.093 87.536C687.597 86.976 687.213 86.296 686.941 85.496C686.685 84.696 686.557 83.8 686.557 82.808C686.557 81.816 686.685 80.92 686.941 80.12C687.213 79.32 687.597 78.64 688.093 78.08C688.605 77.52 689.221 77.088 689.941 76.784C690.677 76.48 691.501 76.328 692.413 76.328C693.693 76.328 694.717 76.6 695.485 77.144C696.269 77.688 696.853 78.392 697.237 79.256L695.197 80.36C694.973 79.784 694.629 79.328 694.165 78.992C693.717 78.656 693.133 78.488 692.413 78.488C691.421 78.488 690.653 78.792 690.109 79.4C689.565 79.992 689.293 80.784 689.293 81.776V83.84C689.293 84.816 689.565 85.608 690.109 86.216C690.653 86.824 691.437 87.128 692.461 87.128C693.229 87.128 693.853 86.952 694.333 86.6C694.829 86.248 695.221 85.768 695.509 85.16L697.429 86.336C697.029 87.2 696.421 87.912 695.605 88.472C694.789 89.016 693.733 89.288 692.437 89.288ZM709.06 86.888H708.916C708.548 87.64 708.06 88.232 707.452 88.664C706.844 89.08 706.084 89.288 705.172 89.288C703.716 89.288 702.556 88.744 701.692 87.656C700.828 86.568 700.396 84.952 700.396 82.808C700.396 80.664 700.828 79.048 701.692 77.96C702.556 76.872 703.716 76.328 705.172 76.328C706.084 76.328 706.844 76.544 707.452 76.976C708.06 77.392 708.548 77.976 708.916 78.728H709.06V76.616H711.676V89H709.06V86.888ZM706.252 87.152C706.636 87.152 706.996 87.104 707.332 87.008C707.668 86.912 707.964 86.768 708.22 86.576C708.476 86.384 708.676 86.152 708.82 85.88C708.98 85.592 709.06 85.256 709.06 84.872V80.744C709.06 80.36 708.98 80.032 708.82 79.76C708.676 79.472 708.476 79.232 708.22 79.04C707.964 78.848 707.668 78.704 707.332 78.608C706.996 78.512 706.636 78.464 706.252 78.464C705.26 78.464 704.492 78.768 703.948 79.376C703.42 79.984 703.156 80.792 703.156 81.8V83.816C703.156 84.824 703.42 85.632 703.948 86.24C704.492 86.848 705.26 87.152 706.252 87.152ZM715.363 86.888H719.467V73.352H715.363V71.24H722.083V86.888H726.187V89H715.363V86.888ZM750 89.288C749.072 89.288 748.24 89.136 747.504 88.832C746.784 88.528 746.168 88.096 745.656 87.536C745.16 86.976 744.776 86.296 744.504 85.496C744.248 84.696 744.12 83.8 744.12 82.808C744.12 81.816 744.248 80.92 744.504 80.12C744.776 79.32 745.16 78.64 745.656 78.08C746.168 77.52 746.784 77.088 747.504 76.784C748.24 76.48 749.064 76.328 749.976 76.328C751.256 76.328 752.28 76.6 753.048 77.144C753.832 77.688 754.416 78.392 754.8 79.256L752.76 80.36C752.536 79.784 752.192 79.328 751.728 78.992C751.28 78.656 750.696 78.488 749.976 78.488C748.984 78.488 748.216 78.792 747.672 79.4C747.128 79.992 746.856 80.784 746.856 81.776V83.84C746.856 84.816 747.128 85.608 747.672 86.216C748.216 86.824 749 87.128 750.024 87.128C750.792 87.128 751.416 86.952 751.896 86.6C752.392 86.248 752.784 85.768 753.072 85.16L754.992 86.336C754.592 87.2 753.984 87.912 753.168 88.472C752.352 89.016 751.296 89.288 750 89.288ZM763.934 89.288C763.022 89.288 762.198 89.136 761.462 88.832C760.742 88.528 760.126 88.096 759.614 87.536C759.118 86.976 758.734 86.296 758.462 85.496C758.19 84.696 758.054 83.8 758.054 82.808C758.054 81.816 758.19 80.92 758.462 80.12C758.734 79.32 759.118 78.64 759.614 78.08C760.126 77.52 760.742 77.088 761.462 76.784C762.198 76.48 763.022 76.328 763.934 76.328C764.846 76.328 765.662 76.48 766.382 76.784C767.118 77.088 767.734 77.52 768.23 78.08C768.742 78.64 769.134 79.32 769.406 80.12C769.678 80.92 769.814 81.816 769.814 82.808C769.814 83.8 769.678 84.696 769.406 85.496C769.134 86.296 768.742 86.976 768.23 87.536C767.734 88.096 767.118 88.528 766.382 88.832C765.662 89.136 764.846 89.288 763.934 89.288ZM763.934 87.224C764.894 87.224 765.654 86.936 766.214 86.36C766.79 85.768 767.078 84.896 767.078 83.744V81.872C767.078 80.72 766.79 79.856 766.214 79.28C765.654 78.688 764.894 78.392 763.934 78.392C762.974 78.392 762.206 78.688 761.63 79.28C761.07 79.856 760.79 80.72 760.79 81.872V83.744C760.79 84.896 761.07 85.768 761.63 86.36C762.206 86.936 762.974 87.224 763.934 87.224ZM772.181 89V76.616H774.413V78.224H774.533C774.725 77.696 774.997 77.248 775.349 76.88C775.717 76.512 776.237 76.328 776.909 76.328C777.565 76.328 778.069 76.512 778.421 76.88C778.789 77.232 779.021 77.72 779.117 78.344H779.213C779.437 77.784 779.749 77.312 780.149 76.928C780.549 76.528 781.125 76.328 781.877 76.328C782.837 76.328 783.501 76.664 783.869 77.336C784.253 78.008 784.445 78.992 784.445 80.288V89H782.213V80.624C782.213 79.76 782.109 79.168 781.901 78.848C781.693 78.512 781.357 78.344 780.893 78.344C780.477 78.344 780.125 78.488 779.837 78.776C779.565 79.048 779.429 79.464 779.429 80.024V89H777.197V80.624C777.197 79.76 777.093 79.168 776.885 78.848C776.693 78.512 776.365 78.344 775.901 78.344C775.469 78.344 775.109 78.488 774.821 78.776C774.549 79.048 774.413 79.464 774.413 80.024V89H772.181ZM787.412 76.616H790.028V78.728H790.172C790.54 77.976 791.028 77.392 791.636 76.976C792.244 76.544 793.004 76.328 793.916 76.328C795.372 76.328 796.532 76.872 797.396 77.96C798.26 79.048 798.692 80.664 798.692 82.808C798.692 84.952 798.26 86.568 797.396 87.656C796.532 88.744 795.372 89.288 793.916 89.288C793.004 89.288 792.244 89.08 791.636 88.664C791.028 88.232 790.54 87.64 790.172 86.888H790.028V93.8H787.412V76.616ZM792.836 87.152C793.828 87.152 794.588 86.848 795.116 86.24C795.66 85.632 795.932 84.824 795.932 83.816V81.8C795.932 80.792 795.66 79.984 795.116 79.376C794.588 78.768 793.828 78.464 792.836 78.464C792.452 78.464 792.092 78.512 791.756 78.608C791.42 78.704 791.124 78.848 790.868 79.04C790.612 79.232 790.404 79.472 790.244 79.76C790.1 80.032 790.028 80.36 790.028 80.744V84.872C790.028 85.256 790.1 85.592 790.244 85.88C790.404 86.152 790.612 86.384 790.868 86.576C791.124 86.768 791.42 86.912 791.756 87.008C792.092 87.104 792.452 87.152 792.836 87.152ZM809.674 86.888H809.554C809.426 87.208 809.258 87.52 809.05 87.824C808.858 88.112 808.618 88.368 808.33 88.592C808.042 88.8 807.706 88.968 807.322 89.096C806.938 89.224 806.49 89.288 805.978 89.288C804.73 89.288 803.722 88.88 802.954 88.064C802.186 87.248 801.802 86.088 801.802 84.584V76.616H804.418V84.2C804.418 86.168 805.274 87.152 806.986 87.152C807.322 87.152 807.65 87.112 807.97 87.032C808.29 86.936 808.578 86.8 808.834 86.624C809.09 86.448 809.29 86.232 809.434 85.976C809.594 85.704 809.674 85.384 809.674 85.016V76.616H812.29V89H809.674V86.888ZM822.241 89C821.153 89 820.353 88.712 819.841 88.136C819.329 87.544 819.073 86.784 819.073 85.856V78.728H815.257V76.616H817.969C818.433 76.616 818.761 76.528 818.953 76.352C819.145 76.16 819.241 75.824 819.241 75.344V72.248H821.689V76.616H826.969V78.728H821.689V86.888H826.969V89H822.241ZM836.152 89.288C835.208 89.288 834.36 89.136 833.608 88.832C832.856 88.528 832.224 88.096 831.712 87.536C831.2 86.976 830.808 86.304 830.536 85.52C830.264 84.72 830.128 83.824 830.128 82.832C830.128 81.84 830.264 80.944 830.536 80.144C830.824 79.344 831.216 78.664 831.712 78.104C832.224 77.528 832.84 77.088 833.56 76.784C834.28 76.48 835.08 76.328 835.96 76.328C836.824 76.328 837.608 76.48 838.312 76.784C839.016 77.072 839.616 77.488 840.112 78.032C840.608 78.576 840.984 79.224 841.24 79.976C841.512 80.728 841.648 81.56 841.648 82.472V83.456H832.768V83.864C832.768 84.84 833.072 85.64 833.68 86.264C834.288 86.872 835.128 87.176 836.2 87.176C837 87.176 837.68 87.008 838.24 86.672C838.816 86.32 839.28 85.856 839.632 85.28L841.264 86.72C840.848 87.44 840.208 88.048 839.344 88.544C838.496 89.04 837.432 89.288 836.152 89.288ZM835.96 78.32C835.496 78.32 835.064 78.4 834.664 78.56C834.28 78.72 833.944 78.952 833.656 79.256C833.384 79.544 833.168 79.888 833.008 80.288C832.848 80.688 832.768 81.128 832.768 81.608V81.776H838.984V81.536C838.984 80.56 838.704 79.784 838.144 79.208C837.6 78.616 836.872 78.32 835.96 78.32ZM844.902 86.888H848.19V78.728H844.902V76.616H850.806V79.904H850.95C851.062 79.472 851.222 79.056 851.43 78.656C851.638 78.256 851.902 77.912 852.222 77.624C852.542 77.32 852.934 77.08 853.398 76.904C853.862 76.712 854.406 76.616 855.03 76.616H856.518V79.112H854.07C853.11 79.112 852.326 79.4 851.718 79.976C851.11 80.536 850.806 81.296 850.806 82.256V86.888H855.294V89H844.902V86.888Z" fill="#9BA1A6"/>
<rect x="64.5" y="112.5" width="399" height="399" stroke="#9BA1A6" stroke-dasharray="6 4"/>
<rect x="656.5" y="112.5" width="399" height="399" stroke="#9BA1A6" stroke-dasharray="6 4"/>
<path d="M127.224 181.288C125.88 181.288 124.72 181.072 123.744 180.64C122.784 180.208 122.008 179.632 121.416 178.912L123.024 177.472C123.568 178.064 124.176 178.52 124.848 178.84C125.536 179.144 126.344 179.296 127.272 179.296C128.12 179.296 128.8 179.152 129.312 178.864C129.84 178.576 130.104 178.128 130.104 177.52C130.104 177.264 130.056 177.048 129.96 176.872C129.864 176.696 129.728 176.552 129.552 176.44C129.376 176.328 129.168 176.24 128.928 176.176C128.704 176.112 128.464 176.064 128.208 176.032L126.24 175.72C125.76 175.656 125.272 175.552 124.776 175.408C124.28 175.264 123.832 175.064 123.432 174.808C123.048 174.536 122.728 174.192 122.472 173.776C122.232 173.36 122.112 172.832 122.112 172.192C122.112 170.928 122.592 169.968 123.552 169.312C124.528 168.656 125.808 168.328 127.392 168.328C128.544 168.328 129.536 168.504 130.368 168.856C131.216 169.192 131.92 169.664 132.48 170.272L131.016 171.808C130.696 171.44 130.24 171.104 129.648 170.8C129.056 170.48 128.272 170.32 127.296 170.32C125.552 170.32 124.68 170.872 124.68 171.976C124.68 172.504 124.864 172.872 125.232 173.08C125.616 173.272 126.064 173.4 126.576 173.464L128.544 173.776C129.04 173.856 129.528 173.96 130.008 174.088C130.504 174.216 130.944 174.416 131.328 174.688C131.728 174.944 132.048 175.28 132.288 175.696C132.544 176.112 132.672 176.64 132.672 177.28C132.672 178.528 132.184 179.512 131.208 180.232C130.248 180.936 128.92 181.288 127.224 181.288ZM141.855 181.288C140.911 181.288 140.063 181.136 139.311 180.832C138.559 180.528 137.927 180.096 137.415 179.536C136.903 178.976 136.511 178.304 136.239 177.52C135.967 176.72 135.831 175.824 135.831 174.832C135.831 173.84 135.967 172.944 136.239 172.144C136.527 171.344 136.919 170.664 137.415 170.104C137.927 169.528 138.543 169.088 139.263 168.784C139.983 168.48 140.783 168.328 141.663 168.328C142.527 168.328 143.311 168.48 144.015 168.784C144.719 169.072 145.319 169.488 145.815 170.032C146.311 170.576 146.687 171.224 146.943 171.976C147.215 172.728 147.351 173.56 147.351 174.472V175.456H138.471V175.864C138.471 176.84 138.775 177.64 139.383 178.264C139.991 178.872 140.831 179.176 141.903 179.176C142.703 179.176 143.383 179.008 143.943 178.672C144.519 178.32 144.983 177.856 145.335 177.28L146.967 178.72C146.551 179.44 145.911 180.048 145.047 180.544C144.199 181.04 143.135 181.288 141.855 181.288ZM141.663 170.32C141.199 170.32 140.767 170.4 140.367 170.56C139.983 170.72 139.647 170.952 139.359 171.256C139.087 171.544 138.871 171.888 138.711 172.288C138.551 172.688 138.471 173.128 138.471 173.608V173.776H144.687V173.536C144.687 172.56 144.407 171.784 143.847 171.208C143.303 170.616 142.575 170.32 141.663 170.32ZM150.605 178.888H153.893V170.728H150.605V168.616H156.509V171.904H156.653C156.765 171.472 156.925 171.056 157.133 170.656C157.341 170.256 157.605 169.912 157.925 169.624C158.245 169.32 158.637 169.08 159.101 168.904C159.565 168.712 160.109 168.616 160.733 168.616H162.221V171.112H159.773C158.813 171.112 158.029 171.4 157.421 171.976C156.813 172.536 156.509 173.296 156.509 174.256V178.888H160.997V181H150.605V178.888ZM168.764 181L164.324 168.616H167.036L168.74 173.848L170.348 178.816H170.492L172.1 173.848L173.804 168.616H176.42L171.98 181H168.764ZM185.531 166.36C184.859 166.36 184.387 166.224 184.115 165.952C183.859 165.68 183.73 165.344 183.73 164.944V164.44C183.73 164.04 183.859 163.704 184.115 163.432C184.387 163.16 184.851 163.024 185.507 163.024C186.179 163.024 186.643 163.16 186.899 163.432C187.171 163.704 187.307 164.04 187.307 164.44V164.944C187.307 165.344 187.171 165.68 186.899 165.952C186.643 166.224 186.187 166.36 185.531 166.36ZM179.987 178.888H184.211V170.728H179.987V168.616H186.827V178.888H190.786V181H179.987V178.888ZM199.609 181.288C198.681 181.288 197.849 181.136 197.113 180.832C196.393 180.528 195.777 180.096 195.265 179.536C194.769 178.976 194.385 178.296 194.113 177.496C193.857 176.696 193.729 175.8 193.729 174.808C193.729 173.816 193.857 172.92 194.113 172.12C194.385 171.32 194.769 170.64 195.265 170.08C195.777 169.52 196.393 169.088 197.113 168.784C197.849 168.48 198.673 168.328 199.585 168.328C200.865 168.328 201.889 168.6 202.657 169.144C203.441 169.688 204.025 170.392 204.409 171.256L202.369 172.36C202.145 171.784 201.801 171.328 201.337 170.992C200.889 170.656 200.305 170.488 199.585 170.488C198.593 170.488 197.825 170.792 197.281 171.4C196.737 171.992 196.465 172.784 196.465 173.776V175.84C196.465 176.816 196.737 177.608 197.281 178.216C197.825 178.824 198.609 179.128 199.633 179.128C200.401 179.128 201.025 178.952 201.505 178.6C202.001 178.248 202.393 177.768 202.681 177.16L204.601 178.336C204.201 179.2 203.593 179.912 202.777 180.472C201.961 181.016 200.905 181.288 199.609 181.288ZM213.808 181.288C212.864 181.288 212.016 181.136 211.264 180.832C210.512 180.528 209.88 180.096 209.368 179.536C208.856 178.976 208.464 178.304 208.192 177.52C207.92 176.72 207.784 175.824 207.784 174.832C207.784 173.84 207.92 172.944 208.192 172.144C208.48 171.344 208.872 170.664 209.368 170.104C209.88 169.528 210.496 169.088 211.216 168.784C211.936 168.48 212.736 168.328 213.616 168.328C214.48 168.328 215.264 168.48 215.968 168.784C216.672 169.072 217.272 169.488 217.768 170.032C218.264 170.576 218.64 171.224 218.896 171.976C219.168 172.728 219.304 173.56 219.304 174.472V175.456H210.424V175.864C210.424 176.84 210.728 177.64 211.336 178.264C211.944 178.872 212.784 179.176 213.856 179.176C214.656 179.176 215.336 179.008 215.896 178.672C216.472 178.32 216.936 177.856 217.288 177.28L218.92 178.72C218.504 179.44 217.864 180.048 217 180.544C216.152 181.04 215.088 181.288 213.808 181.288ZM213.616 170.32C213.152 170.32 212.72 170.4 212.32 170.56C211.936 170.72 211.6 170.952 211.312 171.256C211.04 171.544 210.824 171.888 210.664 172.288C210.504 172.688 210.424 173.128 210.424 173.608V173.776H216.64V173.536C216.64 172.56 216.36 171.784 215.8 171.208C215.256 170.616 214.528 170.32 213.616 170.32ZM237.237 181V178.768H241.941V166.216H241.749L237.861 170.368L236.205 168.88L240.477 164.248H244.629V178.768H248.685V181H237.237Z" fill="#EEE"/>
<rect x="96.5" y="144.5" width="177" height="55" stroke="#EEE"/>
<path d="M285.224 285.288C283.88 285.288 282.72 285.072 281.744 284.64C280.784 284.208 280.008 283.632 279.416 282.912L281.024 281.472C281.568 282.064 282.176 282.52 282.848 282.84C283.536 283.144 284.344 283.296 285.272 283.296C286.12 283.296 286.8 283.152 287.312 282.864C287.84 282.576 288.104 282.128 288.104 281.52C288.104 281.264 288.056 281.048 287.96 280.872C287.864 280.696 287.728 280.552 287.552 280.44C287.376 280.328 287.168 280.24 286.928 280.176C286.704 280.112 286.464 280.064 286.208 280.032L284.24 279.72C283.76 279.656 283.272 279.552 282.776 279.408C282.28 279.264 281.832 279.064 281.432 278.808C281.048 278.536 280.728 278.192 280.472 277.776C280.232 277.36 280.112 276.832 280.112 276.192C280.112 274.928 280.592 273.968 281.552 273.312C282.528 272.656 283.808 272.328 285.392 272.328C286.544 272.328 287.536 272.504 288.368 272.856C289.216 273.192 289.92 273.664 290.48 274.272L289.016 275.808C288.696 275.44 288.24 275.104 287.648 274.8C287.056 274.48 286.272 274.32 285.296 274.32C283.552 274.32 282.68 274.872 282.68 275.976C282.68 276.504 282.864 276.872 283.232 277.08C283.616 277.272 284.064 277.4 284.576 277.464L286.544 277.776C287.04 277.856 287.528 277.96 288.008 278.088C288.504 278.216 288.944 278.416 289.328 278.688C289.728 278.944 290.048 279.28 290.288 279.696C290.544 280.112 290.672 280.64 290.672 281.28C290.672 282.528 290.184 283.512 289.208 284.232C288.248 284.936 286.92 285.288 285.224 285.288ZM299.855 285.288C298.911 285.288 298.063 285.136 297.311 284.832C296.559 284.528 295.927 284.096 295.415 283.536C294.903 282.976 294.511 282.304 294.239 281.52C293.967 280.72 293.831 279.824 293.831 278.832C293.831 277.84 293.967 276.944 294.239 276.144C294.527 275.344 294.919 274.664 295.415 274.104C295.927 273.528 296.543 273.088 297.263 272.784C297.983 272.48 298.783 272.328 299.663 272.328C300.527 272.328 301.311 272.48 302.015 272.784C302.719 273.072 303.319 273.488 303.815 274.032C304.311 274.576 304.687 275.224 304.943 275.976C305.215 276.728 305.351 277.56 305.351 278.472V279.456H296.471V279.864C296.471 280.84 296.775 281.64 297.383 282.264C297.991 282.872 298.831 283.176 299.903 283.176C300.703 283.176 301.383 283.008 301.943 282.672C302.519 282.32 302.983 281.856 303.335 281.28L304.967 282.72C304.551 283.44 303.911 284.048 303.047 284.544C302.199 285.04 301.135 285.288 299.855 285.288ZM299.663 274.32C299.199 274.32 298.767 274.4 298.367 274.56C297.983 274.72 297.647 274.952 297.359 275.256C297.087 275.544 296.871 275.888 296.711 276.288C296.551 276.688 296.471 277.128 296.471 277.608V277.776H302.687V277.536C302.687 276.56 302.407 275.784 301.847 275.208C301.303 274.616 300.575 274.32 299.663 274.32ZM308.605 282.888H311.893V274.728H308.605V272.616H314.509V275.904H314.653C314.765 275.472 314.925 275.056 315.133 274.656C315.341 274.256 315.605 273.912 315.925 273.624C316.245 273.32 316.637 273.08 317.101 272.904C317.565 272.712 318.109 272.616 318.733 272.616H320.221V275.112H317.773C316.813 275.112 316.029 275.4 315.421 275.976C314.813 276.536 314.509 277.296 314.509 278.256V282.888H318.997V285H308.605V282.888ZM326.764 285L322.324 272.616H325.036L326.74 277.848L328.348 282.816H328.492L330.1 277.848L331.804 272.616H334.42L329.98 285H326.764ZM343.531 270.36C342.859 270.36 342.387 270.224 342.115 269.952C341.859 269.68 341.73 269.344 341.73 268.944V268.44C341.73 268.04 341.859 267.704 342.115 267.432C342.387 267.16 342.851 267.024 343.507 267.024C344.179 267.024 344.643 267.16 344.899 267.432C345.171 267.704 345.307 268.04 345.307 268.44V268.944C345.307 269.344 345.171 269.68 344.899 269.952C344.643 270.224 344.187 270.36 343.531 270.36ZM337.987 282.888H342.211V274.728H337.987V272.616H344.827V282.888H348.786V285H337.987V282.888ZM357.609 285.288C356.681 285.288 355.849 285.136 355.113 284.832C354.393 284.528 353.777 284.096 353.265 283.536C352.769 282.976 352.385 282.296 352.113 281.496C351.857 280.696 351.729 279.8 351.729 278.808C351.729 277.816 351.857 276.92 352.113 276.12C352.385 275.32 352.769 274.64 353.265 274.08C353.777 273.52 354.393 273.088 355.113 272.784C355.849 272.48 356.673 272.328 357.585 272.328C358.865 272.328 359.889 272.6 360.657 273.144C361.441 273.688 362.025 274.392 362.409 275.256L360.369 276.36C360.145 275.784 359.801 275.328 359.337 274.992C358.889 274.656 358.305 274.488 357.585 274.488C356.593 274.488 355.825 274.792 355.281 275.4C354.737 275.992 354.465 276.784 354.465 277.776V279.84C354.465 280.816 354.737 281.608 355.281 282.216C355.825 282.824 356.609 283.128 357.633 283.128C358.401 283.128 359.025 282.952 359.505 282.6C360.001 282.248 360.393 281.768 360.681 281.16L362.601 282.336C362.201 283.2 361.593 283.912 360.777 284.472C359.961 285.016 358.905 285.288 357.609 285.288ZM371.808 285.288C370.864 285.288 370.016 285.136 369.264 284.832C368.512 284.528 367.88 284.096 367.368 283.536C366.856 282.976 366.464 282.304 366.192 281.52C365.92 280.72 365.784 279.824 365.784 278.832C365.784 277.84 365.92 276.944 366.192 276.144C366.48 275.344 366.872 274.664 367.368 274.104C367.88 273.528 368.496 273.088 369.216 272.784C369.936 272.48 370.736 272.328 371.616 272.328C372.48 272.328 373.264 272.48 373.968 272.784C374.672 273.072 375.272 273.488 375.768 274.032C376.264 274.576 376.64 275.224 376.896 275.976C377.168 276.728 377.304 277.56 377.304 278.472V279.456H368.424V279.864C368.424 280.84 368.728 281.64 369.336 282.264C369.944 282.872 370.784 283.176 371.856 283.176C372.656 283.176 373.336 283.008 373.896 282.672C374.472 282.32 374.936 281.856 375.288 281.28L376.92 282.72C376.504 283.44 375.864 284.048 375 284.544C374.152 285.04 373.088 285.288 371.808 285.288ZM371.616 274.32C371.152 274.32 370.72 274.4 370.32 274.56C369.936 274.72 369.6 274.952 369.312 275.256C369.04 275.544 368.824 275.888 368.664 276.288C368.504 276.688 368.424 277.128 368.424 277.608V277.776H374.64V277.536C374.64 276.56 374.36 275.784 373.8 275.208C373.256 274.616 372.528 274.32 371.616 274.32ZM406.205 285H394.637V282.432L400.109 277.656C400.973 276.888 401.637 276.16 402.101 275.472C402.581 274.784 402.821 274.056 402.821 273.288V273.024C402.821 272.144 402.581 271.472 402.101 271.008C401.621 270.528 400.925 270.288 400.013 270.288C399.085 270.288 398.365 270.536 397.853 271.032C397.357 271.528 396.997 272.16 396.773 272.928L394.421 272.04C394.581 271.512 394.813 271.008 395.117 270.528C395.421 270.032 395.805 269.592 396.269 269.208C396.749 268.824 397.309 268.52 397.949 268.296C398.605 268.072 399.357 267.96 400.205 267.96C401.069 267.96 401.837 268.088 402.509 268.344C403.197 268.584 403.773 268.92 404.237 269.352C404.701 269.784 405.053 270.304 405.293 270.912C405.533 271.504 405.653 272.16 405.653 272.88C405.653 273.552 405.549 274.176 405.341 274.752C405.149 275.312 404.869 275.856 404.501 276.384C404.149 276.896 403.725 277.392 403.229 277.872C402.733 278.352 402.189 278.832 401.597 279.312L397.541 282.72H406.205V285Z" fill="#EEE"/>
<rect x="254.5" y="248.5" width="177" height="55" stroke="#EEE"/>
<path d="M127.224 389.288C125.88 389.288 124.72 389.072 123.744 388.64C122.784 388.208 122.008 387.632 121.416 386.912L123.024 385.472C123.568 386.064 124.176 386.52 124.848 386.84C125.536 387.144 126.344 387.296 127.272 387.296C128.12 387.296 128.8 387.152 129.312 386.864C129.84 386.576 130.104 386.128 130.104 385.52C130.104 385.264 130.056 385.048 129.96 384.872C129.864 384.696 129.728 384.552 129.552 384.44C129.376 384.328 129.168 384.24 128.928 384.176C128.704 384.112 128.464 384.064 128.208 384.032L126.24 383.72C125.76 383.656 125.272 383.552 124.776 383.408C124.28 383.264 123.832 383.064 123.432 382.808C123.048 382.536 122.728 382.192 122.472 381.776C122.232 381.36 122.112 380.832 122.112 380.192C122.112 378.928 122.592 377.968 123.552 377.312C124.528 376.656 125.808 376.328 127.392 376.328C128.544 376.328 129.536 376.504 130.368 376.856C131.216 377.192 131.92 377.664 132.48 378.272L131.016 379.808C130.696 379.44 130.24 379.104 129.648 378.8C129.056 378.48 128.272 378.32 127.296 378.32C125.552 378.32 124.68 378.872 124.68 379.976C124.68 380.504 124.864 380.872 125.232 381.08C125.616 381.272 126.064 381.4 126.576 381.464L128.544 381.776C129.04 381.856 129.528 381.96 130.008 382.088C130.504 382.216 130.944 382.416 131.328 382.688C131.728 382.944 132.048 383.28 132.288 383.696C132.544 384.112 132.672 384.64 132.672 385.28C132.672 386.528 132.184 387.512 131.208 388.232C130.248 388.936 128.92 389.288 127.224 389.288ZM141.855 389.288C140.911 389.288 140.063 389.136 139.311 388.832C138.559 388.528 137.927 388.096 137.415 387.536C136.903 386.976 136.511 386.304 136.239 385.52C135.967 384.72 135.831 383.824 135.831 382.832C135.831 381.84 135.967 380.944 136.239 380.144C136.527 379.344 136.919 378.664 137.415 378.104C137.927 377.528 138.543 377.088 139.263 376.784C139.983 376.48 140.783 376.328 141.663 376.328C142.527 376.328 143.311 376.48 144.015 376.784C144.719 377.072 145.319 377.488 145.815 378.032C146.311 378.576 146.687 379.224 146.943 379.976C147.215 380.728 147.351 381.56 147.351 382.472V383.456H138.471V383.864C138.471 384.84 138.775 385.64 139.383 386.264C139.991 386.872 140.831 387.176 141.903 387.176C142.703 387.176 143.383 387.008 143.943 386.672C144.519 386.32 144.983 385.856 145.335 385.28L146.967 386.72C146.551 387.44 145.911 388.048 145.047 388.544C144.199 389.04 143.135 389.288 141.855 389.288ZM141.663 378.32C141.199 378.32 140.767 378.4 140.367 378.56C139.983 378.72 139.647 378.952 139.359 379.256C139.087 379.544 138.871 379.888 138.711 380.288C138.551 380.688 138.471 381.128 138.471 381.608V381.776H144.687V381.536C144.687 380.56 144.407 379.784 143.847 379.208C143.303 378.616 142.575 378.32 141.663 378.32ZM150.605 386.888H153.893V378.728H150.605V376.616H156.509V379.904H156.653C156.765 379.472 156.925 379.056 157.133 378.656C157.341 378.256 157.605 377.912 157.925 377.624C158.245 377.32 158.637 377.08 159.101 376.904C159.565 376.712 160.109 376.616 160.733 376.616H162.221V379.112H159.773C158.813 379.112 158.029 379.4 157.421 379.976C156.813 380.536 156.509 381.296 156.509 382.256V386.888H160.997V389H150.605V386.888ZM168.764 389L164.324 376.616H167.036L168.74 381.848L170.348 386.816H170.492L172.1 381.848L173.804 376.616H176.42L171.98 389H168.764ZM185.531 374.36C184.859 374.36 184.387 374.224 184.115 373.952C183.859 373.68 183.73 373.344 183.73 372.944V372.44C183.73 372.04 183.859 371.704 184.115 371.432C184.387 371.16 184.851 371.024 185.507 371.024C186.179 371.024 186.643 371.16 186.899 371.432C187.171 371.704 187.307 372.04 187.307 372.44V372.944C187.307 373.344 187.171 373.68 186.899 373.952C186.643 374.224 186.187 374.36 185.531 374.36ZM179.987 386.888H184.211V378.728H179.987V376.616H186.827V386.888H190.786V389H179.987V386.888ZM199.609 389.288C198.681 389.288 197.849 389.136 197.113 388.832C196.393 388.528 195.777 388.096 195.265 387.536C194.769 386.976 194.385 386.296 194.113 385.496C193.857 384.696 193.729 383.8 193.729 382.808C193.729 381.816 193.857 380.92 194.113 380.12C194.385 379.32 194.769 378.64 195.265 378.08C195.777 377.52 196.393 377.088 197.113 376.784C197.849 376.48 198.673 376.328 199.585 376.328C200.865 376.328 201.889 376.6 202.657 377.144C203.441 377.688 204.025 378.392 204.409 379.256L202.369 380.36C202.145 379.784 201.801 379.328 201.337 378.992C200.889 378.656 200.305 378.488 199.585 378.488C198.593 378.488 197.825 378.792 197.281 379.4C196.737 379.992 196.465 380.784 196.465 381.776V383.84C196.465 384.816 196.737 385.608 197.281 386.216C197.825 386.824 198.609 387.128 199.633 387.128C200.401 387.128 201.025 386.952 201.505 386.6C202.001 386.248 202.393 385.768 202.681 385.16L204.601 386.336C204.201 387.2 203.593 387.912 202.777 388.472C201.961 389.016 200.905 389.288 199.609 389.288ZM213.808 389.288C212.864 389.288 212.016 389.136 211.264 388.832C210.512 388.528 209.88 388.096 209.368 387.536C208.856 386.976 208.464 386.304 208.192 385.52C207.92 384.72 207.784 383.824 207.784 382.832C207.784 381.84 207.92 380.944 208.192 380.144C208.48 379.344 208.872 378.664 209.368 378.104C209.88 377.528 210.496 377.088 211.216 376.784C211.936 376.48 212.736 376.328 213.616 376.328C214.48 376.328 215.264 376.48 215.968 376.784C216.672 377.072 217.272 377.488 217.768 378.032C218.264 378.576 218.64 379.224 218.896 379.976C219.168 380.728 219.304 381.56 219.304 382.472V383.456H210.424V383.864C210.424 384.84 210.728 385.64 211.336 386.264C211.944 386.872 212.784 387.176 213.856 387.176C214.656 387.176 215.336 387.008 215.896 386.672C216.472 386.32 216.936 385.856 217.288 385.28L218.92 386.72C218.504 387.44 217.864 388.048 217 388.544C216.152 389.04 215.088 389.288 213.808 389.288ZM213.616 378.32C213.152 378.32 212.72 378.4 212.32 378.56C211.936 378.72 211.6 378.952 211.312 379.256C211.04 379.544 210.824 379.888 210.664 380.288C210.504 380.688 210.424 381.128 210.424 381.608V381.776H216.64V381.536C216.64 380.56 216.36 379.784 215.8 379.208C215.256 378.616 214.528 378.32 213.616 378.32ZM248.205 389H236.637V386.432L242.109 381.656C242.973 380.888 243.637 380.16 244.101 379.472C244.581 378.784 244.821 378.056 244.821 377.288V377.024C244.821 376.144 244.581 375.472 244.101 375.008C243.621 374.528 242.925 374.288 242.013 374.288C241.085 374.288 240.365 374.536 239.853 375.032C239.357 375.528 238.997 376.16 238.773 376.928L236.421 376.04C236.581 375.512 236.813 375.008 237.117 374.528C237.421 374.032 237.805 373.592 238.269 373.208C238.749 372.824 239.309 372.52 239.949 372.296C240.605 372.072 241.357 371.96 242.205 371.96C243.069 371.96 243.837 372.088 244.509 372.344C245.197 372.584 245.773 372.92 246.237 373.352C246.701 373.784 247.053 374.304 247.293 374.912C247.533 375.504 247.653 376.16 247.653 376.88C247.653 377.552 247.549 378.176 247.341 378.752C247.149 379.312 246.869 379.856 246.501 380.384C246.149 380.896 245.725 381.392 245.229 381.872C244.733 382.352 244.189 382.832 243.597 383.312L239.541 386.72H248.205V389Z" fill="#EEE"/>
<rect x="96.5" y="352.5" width="177" height="55" stroke="#EEE"/>
<rect x="688.5" y="144.5" width="339" height="87" stroke="#EEE"/>
<path d="M716.488 163.24H718.504L717.208 170.392H713.488L716.488 163.24ZM722.392 163.24H724.408L723.112 170.392H719.392L722.392 163.24ZM728.287 163.24H730.903V170.728H731.047C731.415 169.976 731.903 169.392 732.511 168.976C733.119 168.544 733.879 168.328 734.791 168.328C736.247 168.328 737.407 168.872 738.271 169.96C739.135 171.048 739.567 172.664 739.567 174.808C739.567 176.952 739.135 178.568 738.271 179.656C737.407 180.744 736.247 181.288 734.791 181.288C733.879 181.288 733.119 181.08 732.511 180.664C731.903 180.232 731.415 179.64 731.047 178.888H730.903V181H728.287V163.24ZM733.711 179.152C734.703 179.152 735.463 178.848 735.991 178.24C736.535 177.632 736.807 176.824 736.807 175.816V173.8C736.807 172.792 736.535 171.984 735.991 171.376C735.463 170.768 734.703 170.464 733.711 170.464C733.327 170.464 732.967 170.512 732.631 170.608C732.295 170.704 731.999 170.848 731.743 171.04C731.487 171.232 731.279 171.472 731.119 171.76C730.975 172.032 730.903 172.36 730.903 172.744V176.872C730.903 177.256 730.975 177.592 731.119 177.88C731.279 178.152 731.487 178.384 731.743 178.576C731.999 178.768 732.295 178.912 732.631 179.008C732.967 179.104 733.327 179.152 733.711 179.152ZM752.589 181C751.837 181 751.269 180.808 750.885 180.424C750.517 180.04 750.293 179.536 750.213 178.912H750.093C749.853 179.664 749.413 180.248 748.773 180.664C748.149 181.08 747.349 181.288 746.373 181.288C745.109 181.288 744.101 180.96 743.349 180.304C742.597 179.632 742.221 178.712 742.221 177.544C742.221 176.344 742.661 175.432 743.541 174.808C744.437 174.168 745.805 173.848 747.645 173.848H750.021V172.888C750.021 171.208 749.133 170.368 747.357 170.368C746.557 170.368 745.909 170.528 745.413 170.848C744.917 171.152 744.501 171.56 744.165 172.072L742.605 170.8C742.957 170.128 743.549 169.552 744.381 169.072C745.213 168.576 746.285 168.328 747.597 168.328C749.165 168.328 750.397 168.704 751.293 169.456C752.189 170.208 752.637 171.296 752.637 172.72V178.936H754.197V181H752.589ZM747.117 179.368C747.965 179.368 748.661 179.176 749.205 178.792C749.749 178.408 750.021 177.912 750.021 177.304V175.504H747.693C745.805 175.504 744.861 176.072 744.861 177.208V177.688C744.861 178.248 745.061 178.672 745.461 178.96C745.861 179.232 746.413 179.368 747.117 179.368ZM762.828 181.288C761.9 181.288 761.068 181.136 760.332 180.832C759.612 180.528 758.996 180.096 758.484 179.536C757.988 178.976 757.604 178.296 757.332 177.496C757.076 176.696 756.948 175.8 756.948 174.808C756.948 173.816 757.076 172.92 757.332 172.12C757.604 171.32 757.988 170.64 758.484 170.08C758.996 169.52 759.612 169.088 760.332 168.784C761.068 168.48 761.892 168.328 762.804 168.328C764.084 168.328 765.108 168.6 765.876 169.144C766.66 169.688 767.244 170.392 767.628 171.256L765.588 172.36C765.364 171.784 765.02 171.328 764.556 170.992C764.108 170.656 763.524 170.488 762.804 170.488C761.812 170.488 761.044 170.792 760.5 171.4C759.956 171.992 759.684 172.784 759.684 173.776V175.84C759.684 176.816 759.956 177.608 760.5 178.216C761.044 178.824 761.828 179.128 762.852 179.128C763.62 179.128 764.244 178.952 764.724 178.6C765.22 178.248 765.612 177.768 765.9 177.16L767.82 178.336C767.42 179.2 766.812 179.912 765.996 180.472C765.18 181.016 764.124 181.288 762.828 181.288ZM771.675 163.24H774.291V173.968H774.411L776.355 171.976L779.835 168.616H782.931L777.915 173.488L783.483 181H780.339L776.019 174.976L774.291 176.584V181H771.675V163.24ZM791.417 181.288C790.473 181.288 789.625 181.136 788.873 180.832C788.121 180.528 787.489 180.096 786.977 179.536C786.465 178.976 786.073 178.304 785.801 177.52C785.529 176.72 785.393 175.824 785.393 174.832C785.393 173.84 785.529 172.944 785.801 172.144C786.089 171.344 786.481 170.664 786.977 170.104C787.489 169.528 788.105 169.088 788.825 168.784C789.545 168.48 790.345 168.328 791.225 168.328C792.089 168.328 792.873 168.48 793.577 168.784C794.281 169.072 794.881 169.488 795.377 170.032C795.873 170.576 796.249 171.224 796.505 171.976C796.777 172.728 796.913 173.56 796.913 174.472V175.456H788.033V175.864C788.033 176.84 788.337 177.64 788.945 178.264C789.553 178.872 790.393 179.176 791.465 179.176C792.265 179.176 792.945 179.008 793.505 178.672C794.081 178.32 794.545 177.856 794.897 177.28L796.529 178.72C796.113 179.44 795.473 180.048 794.609 180.544C793.761 181.04 792.697 181.288 791.417 181.288ZM791.225 170.32C790.761 170.32 790.329 170.4 789.929 170.56C789.545 170.72 789.209 170.952 788.921 171.256C788.649 171.544 788.433 171.888 788.273 172.288C788.113 172.688 788.033 173.128 788.033 173.608V173.776H794.249V173.536C794.249 172.56 793.969 171.784 793.409 171.208C792.865 170.616 792.137 170.32 791.225 170.32ZM800.36 181V168.616H802.976V170.728H803.096C803.224 170.408 803.384 170.104 803.576 169.816C803.784 169.512 804.032 169.256 804.32 169.048C804.608 168.824 804.944 168.648 805.328 168.52C805.712 168.392 806.16 168.328 806.672 168.328C807.92 168.328 808.928 168.736 809.696 169.552C810.464 170.368 810.848 171.528 810.848 173.032V181H808.232V173.416C808.232 171.448 807.376 170.464 805.664 170.464C805.328 170.464 805 170.512 804.68 170.608C804.36 170.688 804.072 170.816 803.816 170.992C803.56 171.168 803.352 171.392 803.192 171.664C803.048 171.936 802.976 172.248 802.976 172.6V181H800.36ZM822.622 178.888H822.478C822.11 179.64 821.622 180.232 821.014 180.664C820.406 181.08 819.646 181.288 818.734 181.288C817.278 181.288 816.118 180.744 815.254 179.656C814.39 178.568 813.958 176.952 813.958 174.808C813.958 172.664 814.39 171.048 815.254 169.96C816.118 168.872 817.278 168.328 818.734 168.328C819.646 168.328 820.406 168.544 821.014 168.976C821.622 169.392 822.11 169.976 822.478 170.728H822.622V163.24H825.238V181H822.622V178.888ZM819.814 179.152C820.198 179.152 820.558 179.104 820.894 179.008C821.23 178.912 821.526 178.768 821.782 178.576C822.038 178.384 822.238 178.152 822.382 177.88C822.542 177.592 822.622 177.256 822.622 176.872V172.744C822.622 172.36 822.542 172.032 822.382 171.76C822.238 171.472 822.038 171.232 821.782 171.04C821.526 170.848 821.23 170.704 820.894 170.608C820.558 170.512 820.198 170.464 819.814 170.464C818.822 170.464 818.054 170.768 817.51 171.376C816.982 171.984 816.718 172.792 816.718 173.8V175.816C816.718 176.824 816.982 177.632 817.51 178.24C818.054 178.848 818.822 179.152 819.814 179.152ZM830.605 163.24H834.325L831.325 170.392H829.309L830.605 163.24ZM836.509 163.24H840.229L837.229 170.392H835.213L836.509 163.24ZM713.8 210.888H717.904V197.352H713.8V195.24H720.52V210.888H724.624V213H713.8V210.888ZM738.199 213C737.447 213 736.879 212.808 736.495 212.424C736.127 212.04 735.903 211.536 735.823 210.912H735.703C735.463 211.664 735.023 212.248 734.383 212.664C733.759 213.08 732.959 213.288 731.983 213.288C730.719 213.288 729.711 212.96 728.959 212.304C728.207 211.632 727.831 210.712 727.831 209.544C727.831 208.344 728.271 207.432 729.151 206.808C730.047 206.168 731.415 205.848 733.255 205.848H735.631V204.888C735.631 203.208 734.743 202.368 732.967 202.368C732.167 202.368 731.519 202.528 731.023 202.848C730.527 203.152 730.111 203.56 729.775 204.072L728.215 202.8C728.567 202.128 729.159 201.552 729.991 201.072C730.823 200.576 731.895 200.328 733.207 200.328C734.775 200.328 736.007 200.704 736.903 201.456C737.799 202.208 738.247 203.296 738.247 204.72V210.936H739.807V213H738.199ZM732.727 211.368C733.575 211.368 734.271 211.176 734.815 210.792C735.359 210.408 735.631 209.912 735.631 209.304V207.504H733.303C731.415 207.504 730.471 208.072 730.471 209.208V209.688C730.471 210.248 730.671 210.672 731.071 210.96C731.471 211.232 732.023 211.368 732.727 211.368ZM751.605 200.616H754.245L748.245 215.4C747.925 216.2 747.501 216.8 746.973 217.2C746.461 217.6 745.717 217.8 744.741 217.8H742.653V215.688H745.581L746.709 212.832L741.717 200.616H744.453L746.421 205.8L747.957 210.048H748.101L749.637 205.8L751.605 200.616ZM762.636 213.288C761.692 213.288 760.844 213.136 760.092 212.832C759.34 212.528 758.708 212.096 758.196 211.536C757.684 210.976 757.292 210.304 757.02 209.52C756.748 208.72 756.612 207.824 756.612 206.832C756.612 205.84 756.748 204.944 757.02 204.144C757.308 203.344 757.7 202.664 758.196 202.104C758.708 201.528 759.324 201.088 760.044 200.784C760.764 200.48 761.564 200.328 762.444 200.328C763.308 200.328 764.092 200.48 764.796 200.784C765.5 201.072 766.1 201.488 766.596 202.032C767.092 202.576 767.468 203.224 767.724 203.976C767.996 204.728 768.132 205.56 768.132 206.472V207.456H759.252V207.864C759.252 208.84 759.556 209.64 760.164 210.264C760.772 210.872 761.612 211.176 762.684 211.176C763.484 211.176 764.164 211.008 764.724 210.672C765.3 210.32 765.764 209.856 766.116 209.28L767.748 210.72C767.332 211.44 766.692 212.048 765.828 212.544C764.98 213.04 763.916 213.288 762.636 213.288ZM762.444 202.32C761.98 202.32 761.548 202.4 761.148 202.56C760.764 202.72 760.428 202.952 760.14 203.256C759.868 203.544 759.652 203.888 759.492 204.288C759.332 204.688 759.252 205.128 759.252 205.608V205.776H765.468V205.536C765.468 204.56 765.188 203.784 764.628 203.208C764.084 202.616 763.356 202.32 762.444 202.32ZM771.387 210.888H774.675V202.728H771.387V200.616H777.291V203.904H777.435C777.547 203.472 777.707 203.056 777.915 202.656C778.123 202.256 778.387 201.912 778.707 201.624C779.027 201.32 779.419 201.08 779.883 200.904C780.347 200.712 780.891 200.616 781.515 200.616H783.003V203.112H780.555C779.595 203.112 778.811 203.4 778.203 203.976C777.595 204.536 777.291 205.296 777.291 206.256V210.888H781.779V213H771.387V210.888Z" fill="#EEE"/>
<rect x="688.5" y="392.5" width="339" height="87" stroke="#EEE"/>
<path d="M717.592 429L713.152 416.616H715.864L717.568 421.848L719.176 426.816H719.32L720.928 421.848L722.632 416.616H725.248L720.808 429H717.592ZM734.359 414.36C733.687 414.36 733.215 414.224 732.943 413.952C732.687 413.68 732.559 413.344 732.559 412.944V412.44C732.559 412.04 732.687 411.704 732.943 411.432C733.215 411.16 733.679 411.024 734.335 411.024C735.007 411.024 735.471 411.16 735.727 411.432C735.999 411.704 736.135 412.04 736.135 412.44V412.944C736.135 413.344 735.999 413.68 735.727 413.952C735.471 414.224 735.015 414.36 734.359 414.36ZM728.815 426.888H733.039V418.728H728.815V416.616H735.655V426.888H739.615V429H728.815V426.888ZM748.245 429.288C747.301 429.288 746.453 429.136 745.701 428.832C744.949 428.528 744.317 428.096 743.805 427.536C743.293 426.976 742.901 426.304 742.629 425.52C742.357 424.72 742.221 423.824 742.221 422.832C742.221 421.84 742.357 420.944 742.629 420.144C742.917 419.344 743.309 418.664 743.805 418.104C744.317 417.528 744.933 417.088 745.653 416.784C746.373 416.48 747.173 416.328 748.053 416.328C748.917 416.328 749.701 416.48 750.405 416.784C751.109 417.072 751.709 417.488 752.205 418.032C752.701 418.576 753.077 419.224 753.333 419.976C753.605 420.728 753.741 421.56 753.741 422.472V423.456H744.861V423.864C744.861 424.84 745.165 425.64 745.773 426.264C746.381 426.872 747.221 427.176 748.293 427.176C749.093 427.176 749.773 427.008 750.333 426.672C750.909 426.32 751.373 425.856 751.725 425.28L753.357 426.72C752.941 427.44 752.301 428.048 751.437 428.544C750.589 429.04 749.525 429.288 748.245 429.288ZM748.053 418.32C747.589 418.32 747.157 418.4 746.757 418.56C746.373 418.72 746.037 418.952 745.749 419.256C745.477 419.544 745.261 419.888 745.101 420.288C744.941 420.688 744.861 421.128 744.861 421.608V421.776H751.077V421.536C751.077 420.56 750.797 419.784 750.237 419.208C749.693 418.616 748.965 418.32 748.053 418.32ZM755.652 416.616H757.884L759.084 427.032H759.3L761.148 416.616H763.692L765.516 427.032H765.732L766.956 416.616H769.092L767.364 429H764.148L762.492 419.4H762.276L760.596 429H757.38L755.652 416.616ZM713.8 458.888H717.904V445.352H713.8V443.24H720.52V458.888H724.624V461H713.8V458.888ZM738.199 461C737.447 461 736.879 460.808 736.495 460.424C736.127 460.04 735.903 459.536 735.823 458.912H735.703C735.463 459.664 735.023 460.248 734.383 460.664C733.759 461.08 732.959 461.288 731.983 461.288C730.719 461.288 729.711 460.96 728.959 460.304C728.207 459.632 727.831 458.712 727.831 457.544C727.831 456.344 728.271 455.432 729.151 454.808C730.047 454.168 731.415 453.848 733.255 453.848H735.631V452.888C735.631 451.208 734.743 450.368 732.967 450.368C732.167 450.368 731.519 450.528 731.023 450.848C730.527 451.152 730.111 451.56 729.775 452.072L728.215 450.8C728.567 450.128 729.159 449.552 729.991 449.072C730.823 448.576 731.895 448.328 733.207 448.328C734.775 448.328 736.007 448.704 736.903 449.456C737.799 450.208 738.247 451.296 738.247 452.72V458.936H739.807V461H738.199ZM732.727 459.368C733.575 459.368 734.271 459.176 734.815 458.792C735.359 458.408 735.631 457.912 735.631 457.304V455.504H733.303C731.415 455.504 730.471 456.072 730.471 457.208V457.688C730.471 458.248 730.671 458.672 731.071 458.96C731.471 459.232 732.023 459.368 732.727 459.368ZM751.605 448.616H754.245L748.245 463.4C747.925 464.2 747.501 464.8 746.973 465.2C746.461 465.6 745.717 465.8 744.741 465.8H742.653V463.688H745.581L746.709 460.832L741.717 448.616H744.453L746.421 453.8L747.957 458.048H748.101L749.637 453.8L751.605 448.616ZM762.636 461.288C761.692 461.288 760.844 461.136 760.092 460.832C759.34 460.528 758.708 460.096 758.196 459.536C757.684 458.976 757.292 458.304 757.02 457.52C756.748 456.72 756.612 455.824 756.612 454.832C756.612 453.84 756.748 452.944 757.02 452.144C757.308 451.344 757.7 450.664 758.196 450.104C758.708 449.528 759.324 449.088 760.044 448.784C760.764 448.48 761.564 448.328 762.444 448.328C763.308 448.328 764.092 448.48 764.796 448.784C765.5 449.072 766.1 449.488 766.596 450.032C767.092 450.576 767.468 451.224 767.724 451.976C767.996 452.728 768.132 453.56 768.132 454.472V455.456H759.252V455.864C759.252 456.84 759.556 457.64 760.164 458.264C760.772 458.872 761.612 459.176 762.684 459.176C763.484 459.176 764.164 459.008 764.724 458.672C765.3 458.32 765.764 457.856 766.116 457.28L767.748 458.72C767.332 459.44 766.692 460.048 765.828 460.544C764.98 461.04 763.916 461.288 762.636 461.288ZM762.444 450.32C761.98 450.32 761.548 450.4 761.148 450.56C760.764 450.72 760.428 450.952 760.14 451.256C759.868 451.544 759.652 451.888 759.492 452.288C759.332 452.688 759.252 453.128 759.252 453.608V453.776H765.468V453.536C765.468 452.56 765.188 451.784 764.628 451.208C764.084 450.616 763.356 450.32 762.444 450.32ZM771.387 458.888H774.675V450.728H771.387V448.616H777.291V451.904H777.435C777.547 451.472 777.707 451.056 777.915 450.656C778.123 450.256 778.387 449.912 778.707 449.624C779.027 449.32 779.419 449.08 779.883 448.904C780.347 448.712 780.891 448.616 781.515 448.616H783.003V451.112H780.555C779.595 451.112 778.811 451.4 778.203 451.976C777.595 452.536 777.291 453.296 777.291 454.256V458.888H781.779V461H771.387V458.888Z" fill="#EEE"/>
<path d="M279.293 170.293C278.902 170.683 278.902 171.317 279.293 171.707L285.657 178.071C286.047 178.462 286.681 178.462 287.071 178.071C287.462 177.681 287.462 177.047 287.071 176.657L281.414 171L287.071 165.343C287.462 164.953 287.462 164.319 287.071 163.929C286.681 163.538 286.047 163.538 285.657 163.929L279.293 170.293ZM280 172L688 172L688 170L280 170L280 172Z" fill="#EEE"/>
<path d="M437.098 259.568C436.86 260.066 437.07 260.663 437.568 260.902L445.684 264.792C446.182 265.03 446.779 264.82 447.018 264.322C447.256 263.824 447.046 263.227 446.548 262.988L439.334 259.53L442.792 252.316C443.03 251.818 442.82 251.221 442.322 250.982C441.824 250.744 441.227 250.954 440.988 251.452L437.098 259.568ZM438.332 260.943L688.332 172.943L687.668 171.057L437.668 259.057L438.332 260.943Z" fill="#EEE"/>
<path d="M712.795 238.205C712.356 237.765 711.644 237.765 711.205 238.205L704.045 245.364C703.606 245.803 703.606 246.516 704.045 246.955C704.484 247.394 705.197 247.394 705.636 246.955L712 240.591L718.364 246.955C718.803 247.394 719.516 247.394 719.955 246.955C720.394 246.516 720.394 245.803 719.955 245.364L712.795 238.205ZM710.875 239L710.875 392L713.125 392L713.125 239L710.875 239Z" fill="#EEE"/>
<path d="M289.795 648.795C290.235 648.356 290.235 647.644 289.795 647.205L282.636 640.045C282.197 639.606 281.484 639.606 281.045 640.045C280.606 640.484 280.606 641.197 281.045 641.636L287.409 648L281.045 654.364C280.606 654.803 280.606 655.516 281.045 655.955C281.484 656.394 282.197 656.394 282.636 655.955L289.795 648.795ZM289 646.875H64V649.125H289V646.875Z" fill="#EEE"/>
<path d="M437.702 287.045C437.175 287.21 436.881 287.771 437.045 288.298L439.729 296.889C439.893 297.416 440.454 297.71 440.981 297.545C441.508 297.381 441.802 296.82 441.638 296.293L439.253 288.656L446.889 286.271C447.416 286.107 447.71 285.546 447.545 285.019C447.381 284.492 446.82 284.198 446.293 284.362L437.702 287.045ZM437.536 288.886L687.536 419.886L688.464 418.114L438.464 287.114L437.536 288.886Z" fill="#EEE"/>
<path d="M279.363 379.229C278.937 379.58 278.877 380.211 279.229 380.637L284.958 387.577C285.31 388.003 285.94 388.063 286.366 387.712C286.792 387.36 286.852 386.73 286.501 386.304L281.408 380.135L287.577 375.042C288.003 374.69 288.063 374.06 287.712 373.634C287.36 373.208 286.73 373.148 286.304 373.499L279.363 379.229ZM279.905 380.995L687.905 419.995L688.095 418.005L280.095 379.005L279.905 380.995Z" fill="#EEE"/>
<line y1="567.5" x2="1142" y2="567.5" stroke="#9BA1A6" stroke-dasharray="6 4"/>
<path d="M66.016 607.24H68.632V614.728H68.752C68.88 614.408 69.04 614.104 69.232 613.816C69.44 613.512 69.688 613.256 69.976 613.048C70.264 612.824 70.6 612.648 70.984 612.52C71.368 612.392 71.816 612.328 72.328 612.328C73.576 612.328 74.584 612.736 75.352 613.552C76.12 614.368 76.504 615.528 76.504 617.032V625H73.888V617.416C73.888 615.448 73.032 614.464 71.32 614.464C70.984 614.464 70.656 614.512 70.336 614.608C70.016 614.688 69.728 614.816 69.472 614.992C69.216 615.168 69.008 615.392 68.848 615.664C68.704 615.936 68.632 616.248 68.632 616.6V625H66.016V607.24ZM86.3346 625C85.2466 625 84.4466 624.712 83.9346 624.136C83.4226 623.544 83.1666 622.784 83.1666 621.856V614.728H79.3506V612.616H82.0626C82.5266 612.616 82.8546 612.528 83.0466 612.352C83.2386 612.16 83.3346 611.824 83.3346 611.344V608.248H85.7826V612.616H91.0626V614.728H85.7826V622.888H91.0626V625H86.3346ZM100.725 625C99.6373 625 98.8373 624.712 98.3253 624.136C97.8133 623.544 97.5573 622.784 97.5573 621.856V614.728H93.7413V612.616H96.4533C96.9173 612.616 97.2453 612.528 97.4373 612.352C97.6293 612.16 97.7253 611.824 97.7253 611.344V608.248H100.173V612.616H105.453V614.728H100.173V622.888H105.453V625H100.725ZM109.068 612.616H111.684V614.728H111.828C112.196 613.976 112.684 613.392 113.292 612.976C113.9 612.544 114.66 612.328 115.572 612.328C117.028 612.328 118.188 612.872 119.052 613.96C119.916 615.048 120.348 616.664 120.348 618.808C120.348 620.952 119.916 622.568 119.052 623.656C118.188 624.744 117.028 625.288 115.572 625.288C114.66 625.288 113.9 625.08 113.292 624.664C112.684 624.232 112.196 623.64 111.828 622.888H111.684V629.8H109.068V612.616ZM114.492 623.152C115.484 623.152 116.244 622.848 116.772 622.24C117.316 621.632 117.588 620.824 117.588 619.816V617.8C117.588 616.792 117.316 615.984 116.772 615.376C116.244 614.768 115.484 614.464 114.492 614.464C114.108 614.464 113.748 614.512 113.412 614.608C113.076 614.704 112.78 614.848 112.524 615.04C112.268 615.232 112.06 615.472 111.9 615.76C111.756 616.032 111.684 616.36 111.684 616.744V620.872C111.684 621.256 111.756 621.592 111.9 621.88C112.06 622.152 112.268 622.384 112.524 622.576C112.78 622.768 113.076 622.912 113.412 623.008C113.748 623.104 114.108 623.152 114.492 623.152ZM137.777 622.888H141.065V614.728H137.777V612.616H143.681V615.904H143.825C143.937 615.472 144.097 615.056 144.305 614.656C144.513 614.256 144.777 613.912 145.097 613.624C145.417 613.32 145.809 613.08 146.273 612.904C146.737 612.712 147.281 612.616 147.905 612.616H149.393V615.112H146.945C145.985 615.112 145.201 615.4 144.593 615.976C143.985 616.536 143.681 617.296 143.681 618.256V622.888H148.169V625H137.777V622.888ZM157.808 625.288C156.864 625.288 156.016 625.136 155.264 624.832C154.512 624.528 153.88 624.096 153.368 623.536C152.856 622.976 152.464 622.304 152.192 621.52C151.92 620.72 151.784 619.824 151.784 618.832C151.784 617.84 151.92 616.944 152.192 616.144C152.48 615.344 152.872 614.664 153.368 614.104C153.88 613.528 154.496 613.088 155.216 612.784C155.936 612.48 156.736 612.328 157.616 612.328C158.48 612.328 159.264 612.48 159.968 612.784C160.672 613.072 161.272 613.488 161.768 614.032C162.264 614.576 162.64 615.224 162.896 615.976C163.168 616.728 163.304 617.56 163.304 618.472V619.456H154.424V619.864C154.424 620.84 154.728 621.64 155.336 622.264C155.944 622.872 156.784 623.176 157.856 623.176C158.656 623.176 159.336 623.008 159.896 622.672C160.472 622.32 160.936 621.856 161.288 621.28L162.92 622.72C162.504 623.44 161.864 624.048 161 624.544C160.152 625.04 159.088 625.288 157.808 625.288ZM157.616 614.32C157.152 614.32 156.72 614.4 156.32 614.56C155.936 614.72 155.6 614.952 155.312 615.256C155.04 615.544 154.824 615.888 154.664 616.288C154.504 616.688 154.424 617.128 154.424 617.608V617.776H160.64V617.536C160.64 616.56 160.36 615.784 159.8 615.208C159.256 614.616 158.528 614.32 157.616 614.32ZM174.622 622.888H174.478C174.11 623.64 173.622 624.232 173.014 624.664C172.406 625.08 171.646 625.288 170.734 625.288C169.278 625.288 168.118 624.744 167.254 623.656C166.39 622.568 165.958 620.952 165.958 618.808C165.958 616.664 166.39 615.048 167.254 613.96C168.118 612.872 169.278 612.328 170.734 612.328C171.646 612.328 172.406 612.544 173.014 612.976C173.622 613.392 174.11 613.976 174.478 614.728H174.622V612.616H177.238V629.8H174.622V622.888ZM171.814 623.152C172.198 623.152 172.558 623.104 172.894 623.008C173.23 622.912 173.526 622.768 173.782 622.576C174.038 622.384 174.238 622.152 174.382 621.88C174.542 621.592 174.622 621.256 174.622 620.872V616.744C174.622 616.36 174.542 616.032 174.382 615.76C174.238 615.472 174.038 615.232 173.782 615.04C173.526 614.848 173.23 614.704 172.894 614.608C172.558 614.512 172.198 614.464 171.814 614.464C170.822 614.464 170.054 614.768 169.51 615.376C168.982 615.984 168.718 616.792 168.718 617.8V619.816C168.718 620.824 168.982 621.632 169.51 622.24C170.054 622.848 170.822 623.152 171.814 623.152ZM188.893 622.888H188.773C188.645 623.208 188.477 623.52 188.269 623.824C188.077 624.112 187.837 624.368 187.549 624.592C187.261 624.8 186.925 624.968 186.541 625.096C186.157 625.224 185.709 625.288 185.197 625.288C183.949 625.288 182.941 624.88 182.173 624.064C181.405 623.248 181.021 622.088 181.021 620.584V612.616H183.637V620.2C183.637 622.168 184.493 623.152 186.205 623.152C186.541 623.152 186.869 623.112 187.189 623.032C187.509 622.936 187.797 622.8 188.053 622.624C188.309 622.448 188.509 622.232 188.653 621.976C188.813 621.704 188.893 621.384 188.893 621.016V612.616H191.509V625H188.893V622.888ZM200.98 625.288C200.036 625.288 199.188 625.136 198.436 624.832C197.684 624.528 197.052 624.096 196.54 623.536C196.028 622.976 195.636 622.304 195.364 621.52C195.092 620.72 194.956 619.824 194.956 618.832C194.956 617.84 195.092 616.944 195.364 616.144C195.652 615.344 196.044 614.664 196.54 614.104C197.052 613.528 197.668 613.088 198.388 612.784C199.108 612.48 199.908 612.328 200.788 612.328C201.652 612.328 202.436 612.48 203.14 612.784C203.844 613.072 204.444 613.488 204.94 614.032C205.436 614.576 205.812 615.224 206.068 615.976C206.34 616.728 206.476 617.56 206.476 618.472V619.456H197.596V619.864C197.596 620.84 197.9 621.64 198.508 622.264C199.116 622.872 199.956 623.176 201.028 623.176C201.828 623.176 202.508 623.008 203.068 622.672C203.644 622.32 204.108 621.856 204.46 621.28L206.092 622.72C205.676 623.44 205.036 624.048 204.172 624.544C203.324 625.04 202.26 625.288 200.98 625.288ZM200.788 614.32C200.324 614.32 199.892 614.4 199.492 614.56C199.108 614.72 198.772 614.952 198.484 615.256C198.212 615.544 197.996 615.888 197.836 616.288C197.676 616.688 197.596 617.128 197.596 617.608V617.776H203.812V617.536C203.812 616.56 203.532 615.784 202.972 615.208C202.428 614.616 201.7 614.32 200.788 614.32ZM215.13 625.288C213.786 625.288 212.626 625.072 211.65 624.64C210.69 624.208 209.914 623.632 209.322 622.912L210.93 621.472C211.474 622.064 212.082 622.52 212.754 622.84C213.442 623.144 214.25 623.296 215.178 623.296C216.026 623.296 216.706 623.152 217.218 622.864C217.746 622.576 218.01 622.128 218.01 621.52C218.01 621.264 217.962 621.048 217.866 620.872C217.77 620.696 217.634 620.552 217.458 620.44C217.282 620.328 217.074 620.24 216.834 620.176C216.61 620.112 216.37 620.064 216.114 620.032L214.146 619.72C213.666 619.656 213.178 619.552 212.682 619.408C212.186 619.264 211.738 619.064 211.338 618.808C210.954 618.536 210.634 618.192 210.378 617.776C210.138 617.36 210.018 616.832 210.018 616.192C210.018 614.928 210.498 613.968 211.458 613.312C212.434 612.656 213.714 612.328 215.298 612.328C216.45 612.328 217.442 612.504 218.274 612.856C219.122 613.192 219.826 613.664 220.386 614.272L218.922 615.808C218.602 615.44 218.146 615.104 217.554 614.8C216.962 614.48 216.178 614.32 215.202 614.32C213.458 614.32 212.586 614.872 212.586 615.976C212.586 616.504 212.77 616.872 213.138 617.08C213.522 617.272 213.97 617.4 214.482 617.464L216.45 617.776C216.946 617.856 217.434 617.96 217.914 618.088C218.41 618.216 218.85 618.416 219.234 618.688C219.634 618.944 219.954 619.28 220.194 619.696C220.45 620.112 220.578 620.64 220.578 621.28C220.578 622.528 220.09 623.512 219.114 624.232C218.154 624.936 216.826 625.288 215.13 625.288ZM230.241 625C229.153 625 228.353 624.712 227.841 624.136C227.329 623.544 227.073 622.784 227.073 621.856V614.728H223.257V612.616H225.969C226.433 612.616 226.761 612.528 226.953 612.352C227.145 612.16 227.241 611.824 227.241 611.344V608.248H229.689V612.616H234.969V614.728H229.689V622.888H234.969V625H230.241Z" fill="#EEE"/>
</svg>
