<svg width="1142" height="576" viewBox="0 0 1142 576" fill="none" xmlns="http://www.w3.org/2000/svg">
<path d="M71.968 74.36C71.296 74.36 70.824 74.224 70.552 73.952C70.296 73.68 70.168 73.344 70.168 72.944V72.44C70.168 72.04 70.296 71.704 70.552 71.432C70.824 71.16 71.288 71.024 71.944 71.024C72.616 71.024 73.08 71.16 73.336 71.432C73.608 71.704 73.744 72.04 73.744 72.44V72.944C73.744 73.344 73.608 73.68 73.336 73.952C73.08 74.224 72.624 74.36 71.968 74.36ZM66.424 86.888H70.648V78.728H66.424V76.616H73.264V86.888H77.224V89H66.424V86.888ZM80.4066 89V76.616H83.0226V78.728H83.1426C83.2706 78.408 83.4306 78.104 83.6226 77.816C83.8306 77.512 84.0786 77.256 84.3666 77.048C84.6546 76.824 84.9906 76.648 85.3746 76.52C85.7586 76.392 86.2066 76.328 86.7186 76.328C87.9666 76.328 88.9746 76.736 89.7426 77.552C90.5106 78.368 90.8946 79.528 90.8946 81.032V89H88.2786V81.416C88.2786 79.448 87.4226 78.464 85.7106 78.464C85.3746 78.464 85.0466 78.512 84.7266 78.608C84.4066 78.688 84.1186 78.816 83.8626 78.992C83.6066 79.168 83.3986 79.392 83.2386 79.664C83.0946 79.936 83.0226 80.248 83.0226 80.6V89H80.4066ZM100.725 89C99.6373 89 98.8373 88.712 98.3253 88.136C97.8133 87.544 97.5573 86.784 97.5573 85.856V78.728H93.7413V76.616H96.4533C96.9173 76.616 97.2453 76.528 97.4373 76.352C97.6293 76.16 97.7253 75.824 97.7253 75.344V72.248H100.173V76.616H105.453V78.728H100.173V86.888H105.453V89H100.725ZM114.636 89.288C113.692 89.288 112.844 89.136 112.092 88.832C111.34 88.528 110.708 88.096 110.196 87.536C109.684 86.976 109.292 86.304 109.02 85.52C108.748 84.72 108.612 83.824 108.612 82.832C108.612 81.84 108.748 80.944 109.02 80.144C109.308 79.344 109.7 78.664 110.196 78.104C110.708 77.528 111.324 77.088 112.044 76.784C112.764 76.48 113.564 76.328 114.444 76.328C115.308 76.328 116.092 76.48 116.796 76.784C117.5 77.072 118.1 77.488 118.596 78.032C119.092 78.576 119.468 79.224 119.724 79.976C119.996 80.728 120.132 81.56 120.132 82.472V83.456H111.252V83.864C111.252 84.84 111.556 85.64 112.164 86.264C112.772 86.872 113.612 87.176 114.684 87.176C115.484 87.176 116.164 87.008 116.724 86.672C117.3 86.32 117.764 85.856 118.116 85.28L119.748 86.72C119.332 87.44 118.692 88.048 117.828 88.544C116.98 89.04 115.916 89.288 114.636 89.288ZM114.444 78.32C113.98 78.32 113.548 78.4 113.148 78.56C112.764 78.72 112.428 78.952 112.14 79.256C111.868 79.544 111.652 79.888 111.492 80.288C111.332 80.688 111.252 81.128 111.252 81.608V81.776H117.468V81.536C117.468 80.56 117.188 79.784 116.628 79.208C116.084 78.616 115.356 78.32 114.444 78.32ZM123.387 86.888H126.675V78.728H123.387V76.616H129.291V79.904H129.435C129.547 79.472 129.707 79.056 129.915 78.656C130.123 78.256 130.387 77.912 130.707 77.624C131.027 77.32 131.419 77.08 131.883 76.904C132.347 76.712 132.891 76.616 133.515 76.616H135.003V79.112H132.555C131.595 79.112 130.811 79.4 130.203 79.976C129.595 80.536 129.291 81.296 129.291 82.256V86.888H133.779V89H123.387V86.888ZM136.433 76.616H138.665L139.865 87.032H140.081L141.929 76.616H144.473L146.297 87.032H146.513L147.737 76.616H149.873L148.145 89H144.929L143.273 79.4H143.057L141.377 89H138.161L136.433 76.616ZM157.808 89.288C156.864 89.288 156.016 89.136 155.264 88.832C154.512 88.528 153.88 88.096 153.368 87.536C152.856 86.976 152.464 86.304 152.192 85.52C151.92 84.72 151.784 83.824 151.784 82.832C151.784 81.84 151.92 80.944 152.192 80.144C152.48 79.344 152.872 78.664 153.368 78.104C153.88 77.528 154.496 77.088 155.216 76.784C155.936 76.48 156.736 76.328 157.616 76.328C158.48 76.328 159.264 76.48 159.968 76.784C160.672 77.072 161.272 77.488 161.768 78.032C162.264 78.576 162.64 79.224 162.896 79.976C163.168 80.728 163.304 81.56 163.304 82.472V83.456H154.424V83.864C154.424 84.84 154.728 85.64 155.336 86.264C155.944 86.872 156.784 87.176 157.856 87.176C158.656 87.176 159.336 87.008 159.896 86.672C160.472 86.32 160.936 85.856 161.288 85.28L162.92 86.72C162.504 87.44 161.864 88.048 161 88.544C160.152 89.04 159.088 89.288 157.808 89.288ZM157.616 78.32C157.152 78.32 156.72 78.4 156.32 78.56C155.936 78.72 155.6 78.952 155.312 79.256C155.04 79.544 154.824 79.888 154.664 80.288C154.504 80.688 154.424 81.128 154.424 81.608V81.776H160.64V81.536C160.64 80.56 160.36 79.784 159.8 79.208C159.256 78.616 158.528 78.32 157.616 78.32ZM166.63 71.24H169.246V78.728H169.39C169.758 77.976 170.246 77.392 170.854 76.976C171.462 76.544 172.222 76.328 173.134 76.328C174.59 76.328 175.75 76.872 176.614 77.96C177.478 79.048 177.91 80.664 177.91 82.808C177.91 84.952 177.478 86.568 176.614 87.656C175.75 88.744 174.59 89.288 173.134 89.288C172.222 89.288 171.462 89.08 170.854 88.664C170.246 88.232 169.758 87.64 169.39 86.888H169.246V89H166.63V71.24ZM172.054 87.152C173.046 87.152 173.806 86.848 174.334 86.24C174.878 85.632 175.15 84.824 175.15 83.816V81.8C175.15 80.792 174.878 79.984 174.334 79.376C173.806 78.768 173.046 78.464 172.054 78.464C171.67 78.464 171.31 78.512 170.974 78.608C170.638 78.704 170.342 78.848 170.086 79.04C169.83 79.232 169.622 79.472 169.462 79.76C169.318 80.032 169.246 80.36 169.246 80.744V84.872C169.246 85.256 169.318 85.592 169.462 85.88C169.622 86.152 169.83 86.384 170.086 86.576C170.342 86.768 170.638 86.912 170.974 87.008C171.31 87.104 171.67 87.152 172.054 87.152ZM186.349 89.288C185.005 89.288 183.845 89.072 182.869 88.64C181.909 88.208 181.133 87.632 180.541 86.912L182.149 85.472C182.693 86.064 183.301 86.52 183.973 86.84C184.661 87.144 185.469 87.296 186.397 87.296C187.245 87.296 187.925 87.152 188.437 86.864C188.965 86.576 189.229 86.128 189.229 85.52C189.229 85.264 189.181 85.048 189.085 84.872C188.989 84.696 188.853 84.552 188.677 84.44C188.501 84.328 188.293 84.24 188.053 84.176C187.829 84.112 187.589 84.064 187.333 84.032L185.365 83.72C184.885 83.656 184.397 83.552 183.901 83.408C183.405 83.264 182.957 83.064 182.557 82.808C182.173 82.536 181.853 82.192 181.597 81.776C181.357 81.36 181.237 80.832 181.237 80.192C181.237 78.928 181.717 77.968 182.677 77.312C183.653 76.656 184.933 76.328 186.517 76.328C187.669 76.328 188.661 76.504 189.493 76.856C190.341 77.192 191.045 77.664 191.605 78.272L190.141 79.808C189.821 79.44 189.365 79.104 188.773 78.8C188.181 78.48 187.397 78.32 186.421 78.32C184.677 78.32 183.805 78.872 183.805 79.976C183.805 80.504 183.989 80.872 184.357 81.08C184.741 81.272 185.189 81.4 185.701 81.464L187.669 81.776C188.165 81.856 188.653 81.96 189.133 82.088C189.629 82.216 190.069 82.416 190.453 82.688C190.853 82.944 191.173 83.28 191.413 83.696C191.669 84.112 191.797 84.64 191.797 85.28C191.797 86.528 191.309 87.512 190.333 88.232C189.373 88.936 188.045 89.288 186.349 89.288Z" fill="#9BA1A6"/>
<path d="M657.8 86.888H661.904V73.352H657.8V71.24H664.52V86.888H668.624V89H657.8V86.888ZM677.591 89.288C676.679 89.288 675.855 89.136 675.119 88.832C674.399 88.528 673.783 88.096 673.271 87.536C672.775 86.976 672.391 86.296 672.119 85.496C671.847 84.696 671.711 83.8 671.711 82.808C671.711 81.816 671.847 80.92 672.119 80.12C672.391 79.32 672.775 78.64 673.271 78.08C673.783 77.52 674.399 77.088 675.119 76.784C675.855 76.48 676.679 76.328 677.591 76.328C678.503 76.328 679.319 76.48 680.039 76.784C680.775 77.088 681.391 77.52 681.887 78.08C682.399 78.64 682.791 79.32 683.063 80.12C683.335 80.92 683.471 81.816 683.471 82.808C683.471 83.8 683.335 84.696 683.063 85.496C682.791 86.296 682.399 86.976 681.887 87.536C681.391 88.096 680.775 88.528 680.039 88.832C679.319 89.136 678.503 89.288 677.591 89.288ZM677.591 87.224C678.551 87.224 679.311 86.936 679.871 86.36C680.447 85.768 680.735 84.896 680.735 83.744V81.872C680.735 80.72 680.447 79.856 679.871 79.28C679.311 78.688 678.551 78.392 677.591 78.392C676.631 78.392 675.863 78.688 675.287 79.28C674.727 79.856 674.447 80.72 674.447 81.872V83.744C674.447 84.896 674.727 85.768 675.287 86.36C675.863 86.936 676.631 87.224 677.591 87.224ZM692.437 89.288C691.509 89.288 690.677 89.136 689.941 88.832C689.221 88.528 688.605 88.096 688.093 87.536C687.597 86.976 687.213 86.296 686.941 85.496C686.685 84.696 686.557 83.8 686.557 82.808C686.557 81.816 686.685 80.92 686.941 80.12C687.213 79.32 687.597 78.64 688.093 78.08C688.605 77.52 689.221 77.088 689.941 76.784C690.677 76.48 691.501 76.328 692.413 76.328C693.693 76.328 694.717 76.6 695.485 77.144C696.269 77.688 696.853 78.392 697.237 79.256L695.197 80.36C694.973 79.784 694.629 79.328 694.165 78.992C693.717 78.656 693.133 78.488 692.413 78.488C691.421 78.488 690.653 78.792 690.109 79.4C689.565 79.992 689.293 80.784 689.293 81.776V83.84C689.293 84.816 689.565 85.608 690.109 86.216C690.653 86.824 691.437 87.128 692.461 87.128C693.229 87.128 693.853 86.952 694.333 86.6C694.829 86.248 695.221 85.768 695.509 85.16L697.429 86.336C697.029 87.2 696.421 87.912 695.605 88.472C694.789 89.016 693.733 89.288 692.437 89.288ZM709.06 86.888H708.916C708.548 87.64 708.06 88.232 707.452 88.664C706.844 89.08 706.084 89.288 705.172 89.288C703.716 89.288 702.556 88.744 701.692 87.656C700.828 86.568 700.396 84.952 700.396 82.808C700.396 80.664 700.828 79.048 701.692 77.96C702.556 76.872 703.716 76.328 705.172 76.328C706.084 76.328 706.844 76.544 707.452 76.976C708.06 77.392 708.548 77.976 708.916 78.728H709.06V76.616H711.676V89H709.06V86.888ZM706.252 87.152C706.636 87.152 706.996 87.104 707.332 87.008C707.668 86.912 707.964 86.768 708.22 86.576C708.476 86.384 708.676 86.152 708.82 85.88C708.98 85.592 709.06 85.256 709.06 84.872V80.744C709.06 80.36 708.98 80.032 708.82 79.76C708.676 79.472 708.476 79.232 708.22 79.04C707.964 78.848 707.668 78.704 707.332 78.608C706.996 78.512 706.636 78.464 706.252 78.464C705.26 78.464 704.492 78.768 703.948 79.376C703.42 79.984 703.156 80.792 703.156 81.8V83.816C703.156 84.824 703.42 85.632 703.948 86.24C704.492 86.848 705.26 87.152 706.252 87.152ZM715.363 86.888H719.467V73.352H715.363V71.24H722.083V86.888H726.187V89H715.363V86.888ZM750 89.288C749.072 89.288 748.24 89.136 747.504 88.832C746.784 88.528 746.168 88.096 745.656 87.536C745.16 86.976 744.776 86.296 744.504 85.496C744.248 84.696 744.12 83.8 744.12 82.808C744.12 81.816 744.248 80.92 744.504 80.12C744.776 79.32 745.16 78.64 745.656 78.08C746.168 77.52 746.784 77.088 747.504 76.784C748.24 76.48 749.064 76.328 749.976 76.328C751.256 76.328 752.28 76.6 753.048 77.144C753.832 77.688 754.416 78.392 754.8 79.256L752.76 80.36C752.536 79.784 752.192 79.328 751.728 78.992C751.28 78.656 750.696 78.488 749.976 78.488C748.984 78.488 748.216 78.792 747.672 79.4C747.128 79.992 746.856 80.784 746.856 81.776V83.84C746.856 84.816 747.128 85.608 747.672 86.216C748.216 86.824 749 87.128 750.024 87.128C750.792 87.128 751.416 86.952 751.896 86.6C752.392 86.248 752.784 85.768 753.072 85.16L754.992 86.336C754.592 87.2 753.984 87.912 753.168 88.472C752.352 89.016 751.296 89.288 750 89.288ZM763.934 89.288C763.022 89.288 762.198 89.136 761.462 88.832C760.742 88.528 760.126 88.096 759.614 87.536C759.118 86.976 758.734 86.296 758.462 85.496C758.19 84.696 758.054 83.8 758.054 82.808C758.054 81.816 758.19 80.92 758.462 80.12C758.734 79.32 759.118 78.64 759.614 78.08C760.126 77.52 760.742 77.088 761.462 76.784C762.198 76.48 763.022 76.328 763.934 76.328C764.846 76.328 765.662 76.48 766.382 76.784C767.118 77.088 767.734 77.52 768.23 78.08C768.742 78.64 769.134 79.32 769.406 80.12C769.678 80.92 769.814 81.816 769.814 82.808C769.814 83.8 769.678 84.696 769.406 85.496C769.134 86.296 768.742 86.976 768.23 87.536C767.734 88.096 767.118 88.528 766.382 88.832C765.662 89.136 764.846 89.288 763.934 89.288ZM763.934 87.224C764.894 87.224 765.654 86.936 766.214 86.36C766.79 85.768 767.078 84.896 767.078 83.744V81.872C767.078 80.72 766.79 79.856 766.214 79.28C765.654 78.688 764.894 78.392 763.934 78.392C762.974 78.392 762.206 78.688 761.63 79.28C761.07 79.856 760.79 80.72 760.79 81.872V83.744C760.79 84.896 761.07 85.768 761.63 86.36C762.206 86.936 762.974 87.224 763.934 87.224ZM772.181 89V76.616H774.413V78.224H774.533C774.725 77.696 774.997 77.248 775.349 76.88C775.717 76.512 776.237 76.328 776.909 76.328C777.565 76.328 778.069 76.512 778.421 76.88C778.789 77.232 779.021 77.72 779.117 78.344H779.213C779.437 77.784 779.749 77.312 780.149 76.928C780.549 76.528 781.125 76.328 781.877 76.328C782.837 76.328 783.501 76.664 783.869 77.336C784.253 78.008 784.445 78.992 784.445 80.288V89H782.213V80.624C782.213 79.76 782.109 79.168 781.901 78.848C781.693 78.512 781.357 78.344 780.893 78.344C780.477 78.344 780.125 78.488 779.837 78.776C779.565 79.048 779.429 79.464 779.429 80.024V89H777.197V80.624C777.197 79.76 777.093 79.168 776.885 78.848C776.693 78.512 776.365 78.344 775.901 78.344C775.469 78.344 775.109 78.488 774.821 78.776C774.549 79.048 774.413 79.464 774.413 80.024V89H772.181ZM787.412 76.616H790.028V78.728H790.172C790.54 77.976 791.028 77.392 791.636 76.976C792.244 76.544 793.004 76.328 793.916 76.328C795.372 76.328 796.532 76.872 797.396 77.96C798.26 79.048 798.692 80.664 798.692 82.808C798.692 84.952 798.26 86.568 797.396 87.656C796.532 88.744 795.372 89.288 793.916 89.288C793.004 89.288 792.244 89.08 791.636 88.664C791.028 88.232 790.54 87.64 790.172 86.888H790.028V93.8H787.412V76.616ZM792.836 87.152C793.828 87.152 794.588 86.848 795.116 86.24C795.66 85.632 795.932 84.824 795.932 83.816V81.8C795.932 80.792 795.66 79.984 795.116 79.376C794.588 78.768 793.828 78.464 792.836 78.464C792.452 78.464 792.092 78.512 791.756 78.608C791.42 78.704 791.124 78.848 790.868 79.04C790.612 79.232 790.404 79.472 790.244 79.76C790.1 80.032 790.028 80.36 790.028 80.744V84.872C790.028 85.256 790.1 85.592 790.244 85.88C790.404 86.152 790.612 86.384 790.868 86.576C791.124 86.768 791.42 86.912 791.756 87.008C792.092 87.104 792.452 87.152 792.836 87.152ZM809.674 86.888H809.554C809.426 87.208 809.258 87.52 809.05 87.824C808.858 88.112 808.618 88.368 808.33 88.592C808.042 88.8 807.706 88.968 807.322 89.096C806.938 89.224 806.49 89.288 805.978 89.288C804.73 89.288 803.722 88.88 802.954 88.064C802.186 87.248 801.802 86.088 801.802 84.584V76.616H804.418V84.2C804.418 86.168 805.274 87.152 806.986 87.152C807.322 87.152 807.65 87.112 807.97 87.032C808.29 86.936 808.578 86.8 808.834 86.624C809.09 86.448 809.29 86.232 809.434 85.976C809.594 85.704 809.674 85.384 809.674 85.016V76.616H812.29V89H809.674V86.888ZM822.241 89C821.153 89 820.353 88.712 819.841 88.136C819.329 87.544 819.073 86.784 819.073 85.856V78.728H815.257V76.616H817.969C818.433 76.616 818.761 76.528 818.953 76.352C819.145 76.16 819.241 75.824 819.241 75.344V72.248H821.689V76.616H826.969V78.728H821.689V86.888H826.969V89H822.241ZM836.152 89.288C835.208 89.288 834.36 89.136 833.608 88.832C832.856 88.528 832.224 88.096 831.712 87.536C831.2 86.976 830.808 86.304 830.536 85.52C830.264 84.72 830.128 83.824 830.128 82.832C830.128 81.84 830.264 80.944 830.536 80.144C830.824 79.344 831.216 78.664 831.712 78.104C832.224 77.528 832.84 77.088 833.56 76.784C834.28 76.48 835.08 76.328 835.96 76.328C836.824 76.328 837.608 76.48 838.312 76.784C839.016 77.072 839.616 77.488 840.112 78.032C840.608 78.576 840.984 79.224 841.24 79.976C841.512 80.728 841.648 81.56 841.648 82.472V83.456H832.768V83.864C832.768 84.84 833.072 85.64 833.68 86.264C834.288 86.872 835.128 87.176 836.2 87.176C837 87.176 837.68 87.008 838.24 86.672C838.816 86.32 839.28 85.856 839.632 85.28L841.264 86.72C840.848 87.44 840.208 88.048 839.344 88.544C838.496 89.04 837.432 89.288 836.152 89.288ZM835.96 78.32C835.496 78.32 835.064 78.4 834.664 78.56C834.28 78.72 833.944 78.952 833.656 79.256C833.384 79.544 833.168 79.888 833.008 80.288C832.848 80.688 832.768 81.128 832.768 81.608V81.776H838.984V81.536C838.984 80.56 838.704 79.784 838.144 79.208C837.6 78.616 836.872 78.32 835.96 78.32ZM844.902 86.888H848.19V78.728H844.902V76.616H850.806V79.904H850.95C851.062 79.472 851.222 79.056 851.43 78.656C851.638 78.256 851.902 77.912 852.222 77.624C852.542 77.32 852.934 77.08 853.398 76.904C853.862 76.712 854.406 76.616 855.03 76.616H856.518V79.112H854.07C853.11 79.112 852.326 79.4 851.718 79.976C851.11 80.536 850.806 81.296 850.806 82.256V86.888H855.294V89H844.902V86.888Z" fill="#9BA1A6"/>
<rect x="656.5" y="112.5" width="399" height="399" stroke="#9BA1A6" stroke-dasharray="6 4"/>
<rect x="64.5" y="112.5" width="399" height="399" stroke="#9BA1A6" stroke-dasharray="6 4"/>
<rect x="688.5" y="144.5" width="339" height="87" stroke="#EEE"/>
<path d="M714.016 181V168.616H716.632V170.728H716.752C716.88 170.408 717.04 170.104 717.232 169.816C717.44 169.512 717.688 169.256 717.976 169.048C718.264 168.824 718.6 168.648 718.984 168.52C719.368 168.392 719.816 168.328 720.328 168.328C721.576 168.328 722.584 168.736 723.352 169.552C724.12 170.368 724.504 171.528 724.504 173.032V181H721.888V173.416C721.888 171.448 721.032 170.464 719.32 170.464C718.984 170.464 718.656 170.512 718.336 170.608C718.016 170.688 717.728 170.816 717.472 170.992C717.216 171.168 717.008 171.392 716.848 171.664C716.704 171.936 716.632 172.248 716.632 172.6V181H714.016ZM733.591 181.288C732.679 181.288 731.855 181.136 731.119 180.832C730.399 180.528 729.783 180.096 729.271 179.536C728.775 178.976 728.391 178.296 728.119 177.496C727.847 176.696 727.711 175.8 727.711 174.808C727.711 173.816 727.847 172.92 728.119 172.12C728.391 171.32 728.775 170.64 729.271 170.08C729.783 169.52 730.399 169.088 731.119 168.784C731.855 168.48 732.679 168.328 733.591 168.328C734.503 168.328 735.319 168.48 736.039 168.784C736.775 169.088 737.391 169.52 737.887 170.08C738.399 170.64 738.791 171.32 739.063 172.12C739.335 172.92 739.471 173.816 739.471 174.808C739.471 175.8 739.335 176.696 739.063 177.496C738.791 178.296 738.399 178.976 737.887 179.536C737.391 180.096 736.775 180.528 736.039 180.832C735.319 181.136 734.503 181.288 733.591 181.288ZM733.591 179.224C734.551 179.224 735.311 178.936 735.871 178.36C736.447 177.768 736.735 176.896 736.735 175.744V173.872C736.735 172.72 736.447 171.856 735.871 171.28C735.311 170.688 734.551 170.392 733.591 170.392C732.631 170.392 731.863 170.688 731.287 171.28C730.727 171.856 730.447 172.72 730.447 173.872V175.744C730.447 176.896 730.727 177.768 731.287 178.36C731.863 178.936 732.631 179.224 733.591 179.224ZM750.669 178.888H750.525C750.157 179.64 749.669 180.232 749.061 180.664C748.453 181.08 747.693 181.288 746.781 181.288C745.325 181.288 744.165 180.744 743.301 179.656C742.437 178.568 742.005 176.952 742.005 174.808C742.005 172.664 742.437 171.048 743.301 169.96C744.165 168.872 745.325 168.328 746.781 168.328C747.693 168.328 748.453 168.544 749.061 168.976C749.669 169.392 750.157 169.976 750.525 170.728H750.669V163.24H753.285V181H750.669V178.888ZM747.861 179.152C748.245 179.152 748.605 179.104 748.941 179.008C749.277 178.912 749.573 178.768 749.829 178.576C750.085 178.384 750.285 178.152 750.429 177.88C750.589 177.592 750.669 177.256 750.669 176.872V172.744C750.669 172.36 750.589 172.032 750.429 171.76C750.285 171.472 750.085 171.232 749.829 171.04C749.573 170.848 749.277 170.704 748.941 170.608C748.605 170.512 748.245 170.464 747.861 170.464C746.869 170.464 746.101 170.768 745.557 171.376C745.029 171.984 744.765 172.792 744.765 173.8V175.816C744.765 176.824 745.029 177.632 745.557 178.24C746.101 178.848 746.869 179.152 747.861 179.152ZM762.636 181.288C761.692 181.288 760.844 181.136 760.092 180.832C759.34 180.528 758.708 180.096 758.196 179.536C757.684 178.976 757.292 178.304 757.02 177.52C756.748 176.72 756.612 175.824 756.612 174.832C756.612 173.84 756.748 172.944 757.02 172.144C757.308 171.344 757.7 170.664 758.196 170.104C758.708 169.528 759.324 169.088 760.044 168.784C760.764 168.48 761.564 168.328 762.444 168.328C763.308 168.328 764.092 168.48 764.796 168.784C765.5 169.072 766.1 169.488 766.596 170.032C767.092 170.576 767.468 171.224 767.724 171.976C767.996 172.728 768.132 173.56 768.132 174.472V175.456H759.252V175.864C759.252 176.84 759.556 177.64 760.164 178.264C760.772 178.872 761.612 179.176 762.684 179.176C763.484 179.176 764.164 179.008 764.724 178.672C765.3 178.32 765.764 177.856 766.116 177.28L767.748 178.72C767.332 179.44 766.692 180.048 765.828 180.544C764.98 181.04 763.916 181.288 762.636 181.288ZM762.444 170.32C761.98 170.32 761.548 170.4 761.148 170.56C760.764 170.72 760.428 170.952 760.14 171.256C759.868 171.544 759.652 171.888 759.492 172.288C759.332 172.688 759.252 173.128 759.252 173.608V173.776H765.468V173.536C765.468 172.56 765.188 171.784 764.628 171.208C764.084 170.616 763.356 170.32 762.444 170.32ZM785.009 181V168.616H787.241V170.224H787.361C787.553 169.696 787.825 169.248 788.177 168.88C788.545 168.512 789.065 168.328 789.737 168.328C790.393 168.328 790.897 168.512 791.249 168.88C791.617 169.232 791.849 169.72 791.945 170.344H792.041C792.265 169.784 792.577 169.312 792.977 168.928C793.377 168.528 793.953 168.328 794.705 168.328C795.665 168.328 796.329 168.664 796.697 169.336C797.081 170.008 797.273 170.992 797.273 172.288V181H795.041V172.624C795.041 171.76 794.937 171.168 794.729 170.848C794.521 170.512 794.185 170.344 793.721 170.344C793.305 170.344 792.953 170.488 792.665 170.776C792.393 171.048 792.257 171.464 792.257 172.024V181H790.025V172.624C790.025 171.76 789.921 171.168 789.713 170.848C789.521 170.512 789.193 170.344 788.729 170.344C788.297 170.344 787.937 170.488 787.649 170.776C787.377 171.048 787.241 171.464 787.241 172.024V181H785.009ZM810.152 181C809.4 181 808.832 180.808 808.448 180.424C808.08 180.04 807.856 179.536 807.776 178.912H807.656C807.416 179.664 806.976 180.248 806.336 180.664C805.712 181.08 804.912 181.288 803.936 181.288C802.672 181.288 801.664 180.96 800.912 180.304C800.16 179.632 799.784 178.712 799.784 177.544C799.784 176.344 800.224 175.432 801.104 174.808C802 174.168 803.368 173.848 805.208 173.848H807.584V172.888C807.584 171.208 806.696 170.368 804.92 170.368C804.12 170.368 803.472 170.528 802.976 170.848C802.48 171.152 802.064 171.56 801.728 172.072L800.168 170.8C800.52 170.128 801.112 169.552 801.944 169.072C802.776 168.576 803.848 168.328 805.16 168.328C806.728 168.328 807.96 168.704 808.856 169.456C809.752 170.208 810.2 171.296 810.2 172.72V178.936H811.76V181H810.152ZM804.68 179.368C805.528 179.368 806.224 179.176 806.768 178.792C807.312 178.408 807.584 177.912 807.584 177.304V175.504H805.256C803.368 175.504 802.424 176.072 802.424 177.208V177.688C802.424 178.248 802.624 178.672 803.024 178.96C803.424 179.232 803.976 179.368 804.68 179.368ZM820.702 166.36C820.03 166.36 819.558 166.224 819.286 165.952C819.03 165.68 818.902 165.344 818.902 164.944V164.44C818.902 164.04 819.03 163.704 819.286 163.432C819.558 163.16 820.022 163.024 820.678 163.024C821.35 163.024 821.814 163.16 822.07 163.432C822.342 163.704 822.478 164.04 822.478 164.44V164.944C822.478 165.344 822.342 165.68 822.07 165.952C821.814 166.224 821.358 166.36 820.702 166.36ZM815.158 178.888H819.382V170.728H815.158V168.616H821.998V178.888H825.958V181H815.158V178.888ZM829.141 181V168.616H831.757V170.728H831.877C832.005 170.408 832.165 170.104 832.357 169.816C832.565 169.512 832.813 169.256 833.101 169.048C833.389 168.824 833.725 168.648 834.109 168.52C834.493 168.392 834.941 168.328 835.453 168.328C836.701 168.328 837.709 168.736 838.477 169.552C839.245 170.368 839.629 171.528 839.629 173.032V181H837.013V173.416C837.013 171.448 836.157 170.464 834.445 170.464C834.109 170.464 833.781 170.512 833.461 170.608C833.141 170.688 832.853 170.816 832.597 170.992C832.341 171.168 832.133 171.392 831.973 171.664C831.829 171.936 831.757 172.248 831.757 172.6V181H829.141ZM713.896 200.616H716.512V202.728H716.656C717.024 201.976 717.512 201.392 718.12 200.976C718.728 200.544 719.488 200.328 720.4 200.328C721.856 200.328 723.016 200.872 723.88 201.96C724.744 203.048 725.176 204.664 725.176 206.808C725.176 208.952 724.744 210.568 723.88 211.656C723.016 212.744 721.856 213.288 720.4 213.288C719.488 213.288 718.728 213.08 718.12 212.664C717.512 212.232 717.024 211.64 716.656 210.888H716.512V217.8H713.896V200.616ZM719.32 211.152C720.312 211.152 721.072 210.848 721.6 210.24C722.144 209.632 722.416 208.824 722.416 207.816V205.8C722.416 204.792 722.144 203.984 721.6 203.376C721.072 202.768 720.312 202.464 719.32 202.464C718.936 202.464 718.576 202.512 718.24 202.608C717.904 202.704 717.608 202.848 717.352 203.04C717.096 203.232 716.888 203.472 716.728 203.76C716.584 204.032 716.512 204.36 716.512 204.744V208.872C716.512 209.256 716.584 209.592 716.728 209.88C716.888 210.152 717.096 210.384 717.352 210.576C717.608 210.768 717.904 210.912 718.24 211.008C718.576 211.104 718.936 211.152 719.32 211.152ZM728.215 210.888H731.503V202.728H728.215V200.616H734.119V203.904H734.263C734.375 203.472 734.535 203.056 734.743 202.656C734.951 202.256 735.215 201.912 735.535 201.624C735.855 201.32 736.247 201.08 736.711 200.904C737.175 200.712 737.719 200.616 738.343 200.616H739.831V203.112H737.383C736.423 203.112 735.639 203.4 735.031 203.976C734.423 204.536 734.119 205.296 734.119 206.256V210.888H738.607V213H728.215V210.888ZM747.981 213.288C747.069 213.288 746.245 213.136 745.509 212.832C744.789 212.528 744.173 212.096 743.661 211.536C743.165 210.976 742.781 210.296 742.509 209.496C742.237 208.696 742.101 207.8 742.101 206.808C742.101 205.816 742.237 204.92 742.509 204.12C742.781 203.32 743.165 202.64 743.661 202.08C744.173 201.52 744.789 201.088 745.509 200.784C746.245 200.48 747.069 200.328 747.981 200.328C748.893 200.328 749.709 200.48 750.429 200.784C751.165 201.088 751.781 201.52 752.277 202.08C752.789 202.64 753.181 203.32 753.453 204.12C753.725 204.92 753.861 205.816 753.861 206.808C753.861 207.8 753.725 208.696 753.453 209.496C753.181 210.296 752.789 210.976 752.277 211.536C751.781 212.096 751.165 212.528 750.429 212.832C749.709 213.136 748.893 213.288 747.981 213.288ZM747.981 211.224C748.941 211.224 749.701 210.936 750.261 210.36C750.837 209.768 751.125 208.896 751.125 207.744V205.872C751.125 204.72 750.837 203.856 750.261 203.28C749.701 202.688 748.941 202.392 747.981 202.392C747.021 202.392 746.253 202.688 745.677 203.28C745.117 203.856 744.837 204.72 744.837 205.872V207.744C744.837 208.896 745.117 209.768 745.677 210.36C746.253 210.936 747.021 211.224 747.981 211.224ZM762.828 213.288C761.9 213.288 761.068 213.136 760.332 212.832C759.612 212.528 758.996 212.096 758.484 211.536C757.988 210.976 757.604 210.296 757.332 209.496C757.076 208.696 756.948 207.8 756.948 206.808C756.948 205.816 757.076 204.92 757.332 204.12C757.604 203.32 757.988 202.64 758.484 202.08C758.996 201.52 759.612 201.088 760.332 200.784C761.068 200.48 761.892 200.328 762.804 200.328C764.084 200.328 765.108 200.6 765.876 201.144C766.66 201.688 767.244 202.392 767.628 203.256L765.588 204.36C765.364 203.784 765.02 203.328 764.556 202.992C764.108 202.656 763.524 202.488 762.804 202.488C761.812 202.488 761.044 202.792 760.5 203.4C759.956 203.992 759.684 204.784 759.684 205.776V207.84C759.684 208.816 759.956 209.608 760.5 210.216C761.044 210.824 761.828 211.128 762.852 211.128C763.62 211.128 764.244 210.952 764.724 210.6C765.22 210.248 765.612 209.768 765.9 209.16L767.82 210.336C767.42 211.2 766.812 211.912 765.996 212.472C765.18 213.016 764.124 213.288 762.828 213.288ZM777.027 213.288C776.083 213.288 775.235 213.136 774.483 212.832C773.731 212.528 773.099 212.096 772.587 211.536C772.075 210.976 771.683 210.304 771.411 209.52C771.139 208.72 771.003 207.824 771.003 206.832C771.003 205.84 771.139 204.944 771.411 204.144C771.699 203.344 772.091 202.664 772.587 202.104C773.099 201.528 773.715 201.088 774.435 200.784C775.155 200.48 775.955 200.328 776.835 200.328C777.699 200.328 778.483 200.48 779.187 200.784C779.891 201.072 780.491 201.488 780.987 202.032C781.483 202.576 781.859 203.224 782.115 203.976C782.387 204.728 782.523 205.56 782.523 206.472V207.456H773.643V207.864C773.643 208.84 773.947 209.64 774.555 210.264C775.163 210.872 776.003 211.176 777.075 211.176C777.875 211.176 778.555 211.008 779.115 210.672C779.691 210.32 780.155 209.856 780.507 209.28L782.139 210.72C781.723 211.44 781.083 212.048 780.219 212.544C779.371 213.04 778.307 213.288 777.027 213.288ZM776.835 202.32C776.371 202.32 775.939 202.4 775.539 202.56C775.155 202.72 774.819 202.952 774.531 203.256C774.259 203.544 774.043 203.888 773.883 204.288C773.723 204.688 773.643 205.128 773.643 205.608V205.776H779.859V205.536C779.859 204.56 779.579 203.784 779.019 203.208C778.475 202.616 777.747 202.32 776.835 202.32ZM791.177 213.288C789.833 213.288 788.673 213.072 787.697 212.64C786.737 212.208 785.961 211.632 785.369 210.912L786.977 209.472C787.521 210.064 788.129 210.52 788.801 210.84C789.489 211.144 790.297 211.296 791.225 211.296C792.073 211.296 792.753 211.152 793.265 210.864C793.793 210.576 794.057 210.128 794.057 209.52C794.057 209.264 794.009 209.048 793.913 208.872C793.817 208.696 793.681 208.552 793.505 208.44C793.329 208.328 793.121 208.24 792.881 208.176C792.657 208.112 792.417 208.064 792.161 208.032L790.193 207.72C789.713 207.656 789.225 207.552 788.729 207.408C788.233 207.264 787.785 207.064 787.385 206.808C787.001 206.536 786.681 206.192 786.425 205.776C786.185 205.36 786.065 204.832 786.065 204.192C786.065 202.928 786.545 201.968 787.505 201.312C788.481 200.656 789.761 200.328 791.345 200.328C792.497 200.328 793.489 200.504 794.321 200.856C795.169 201.192 795.873 201.664 796.433 202.272L794.969 203.808C794.649 203.44 794.193 203.104 793.601 202.8C793.009 202.48 792.225 202.32 791.249 202.32C789.505 202.32 788.633 202.872 788.633 203.976C788.633 204.504 788.817 204.872 789.185 205.08C789.569 205.272 790.017 205.4 790.529 205.464L792.497 205.776C792.993 205.856 793.481 205.96 793.961 206.088C794.457 206.216 794.897 206.416 795.281 206.688C795.681 206.944 796.001 207.28 796.241 207.696C796.497 208.112 796.625 208.64 796.625 209.28C796.625 210.528 796.137 211.512 795.161 212.232C794.201 212.936 792.873 213.288 791.177 213.288ZM805.568 213.288C804.224 213.288 803.064 213.072 802.088 212.64C801.128 212.208 800.352 211.632 799.76 210.912L801.368 209.472C801.912 210.064 802.52 210.52 803.192 210.84C803.88 211.144 804.688 211.296 805.616 211.296C806.464 211.296 807.144 211.152 807.656 210.864C808.184 210.576 808.448 210.128 808.448 209.52C808.448 209.264 808.4 209.048 808.304 208.872C808.208 208.696 808.072 208.552 807.896 208.44C807.72 208.328 807.512 208.24 807.272 208.176C807.048 208.112 806.808 208.064 806.552 208.032L804.584 207.72C804.104 207.656 803.616 207.552 803.12 207.408C802.624 207.264 802.176 207.064 801.776 206.808C801.392 206.536 801.072 206.192 800.816 205.776C800.576 205.36 800.456 204.832 800.456 204.192C800.456 202.928 800.936 201.968 801.896 201.312C802.872 200.656 804.152 200.328 805.736 200.328C806.888 200.328 807.88 200.504 808.712 200.856C809.56 201.192 810.264 201.664 810.824 202.272L809.36 203.808C809.04 203.44 808.584 203.104 807.992 202.8C807.4 202.48 806.616 202.32 805.64 202.32C803.896 202.32 803.024 202.872 803.024 203.976C803.024 204.504 803.208 204.872 803.576 205.08C803.96 205.272 804.408 205.4 804.92 205.464L806.888 205.776C807.384 205.856 807.872 205.96 808.352 206.088C808.848 206.216 809.288 206.416 809.672 206.688C810.072 206.944 810.392 207.28 810.632 207.696C810.888 208.112 811.016 208.64 811.016 209.28C811.016 210.528 810.528 211.512 809.552 212.232C808.592 212.936 807.264 213.288 805.568 213.288Z" fill="#EEE"/>
<rect x="688.5" y="392.5" width="339" height="87" stroke="#EEE"/>
<path d="M713.824 426.888H717.112V418.728H713.824V416.616H719.728V419.904H719.872C719.984 419.472 720.144 419.056 720.352 418.656C720.56 418.256 720.824 417.912 721.144 417.624C721.464 417.32 721.856 417.08 722.32 416.904C722.784 416.712 723.328 416.616 723.952 416.616H725.44V419.112H722.992C722.032 419.112 721.248 419.4 720.64 419.976C720.032 420.536 719.728 421.296 719.728 422.256V426.888H724.216V429H713.824V426.888ZM733.855 429.288C732.911 429.288 732.063 429.136 731.311 428.832C730.559 428.528 729.927 428.096 729.415 427.536C728.903 426.976 728.511 426.304 728.239 425.52C727.967 424.72 727.831 423.824 727.831 422.832C727.831 421.84 727.967 420.944 728.239 420.144C728.527 419.344 728.919 418.664 729.415 418.104C729.927 417.528 730.543 417.088 731.263 416.784C731.983 416.48 732.783 416.328 733.663 416.328C734.527 416.328 735.311 416.48 736.015 416.784C736.719 417.072 737.319 417.488 737.815 418.032C738.311 418.576 738.687 419.224 738.943 419.976C739.215 420.728 739.351 421.56 739.351 422.472V423.456H730.471V423.864C730.471 424.84 730.775 425.64 731.383 426.264C731.991 426.872 732.831 427.176 733.903 427.176C734.703 427.176 735.383 427.008 735.943 426.672C736.519 426.32 736.983 425.856 737.335 425.28L738.967 426.72C738.551 427.44 737.911 428.048 737.047 428.544C736.199 429.04 735.135 429.288 733.855 429.288ZM733.663 418.32C733.199 418.32 732.767 418.4 732.367 418.56C731.983 418.72 731.647 418.952 731.359 419.256C731.087 419.544 730.871 419.888 730.711 420.288C730.551 420.688 730.471 421.128 730.471 421.608V421.776H736.687V421.536C736.687 420.56 736.407 419.784 735.847 419.208C735.303 418.616 734.575 418.32 733.663 418.32ZM742.797 429V416.616H745.413V418.728H745.533C745.661 418.408 745.821 418.104 746.013 417.816C746.221 417.512 746.469 417.256 746.757 417.048C747.045 416.824 747.381 416.648 747.765 416.52C748.149 416.392 748.597 416.328 749.109 416.328C750.357 416.328 751.365 416.736 752.133 417.552C752.901 418.368 753.285 419.528 753.285 421.032V429H750.669V421.416C750.669 419.448 749.813 418.464 748.101 418.464C747.765 418.464 747.437 418.512 747.117 418.608C746.797 418.688 746.509 418.816 746.253 418.992C745.997 419.168 745.789 419.392 745.629 419.664C745.485 419.936 745.413 420.248 745.413 420.6V429H742.797ZM765.06 426.888H764.916C764.548 427.64 764.06 428.232 763.452 428.664C762.844 429.08 762.084 429.288 761.172 429.288C759.716 429.288 758.556 428.744 757.692 427.656C756.828 426.568 756.396 424.952 756.396 422.808C756.396 420.664 756.828 419.048 757.692 417.96C758.556 416.872 759.716 416.328 761.172 416.328C762.084 416.328 762.844 416.544 763.452 416.976C764.06 417.392 764.548 417.976 764.916 418.728H765.06V411.24H767.676V429H765.06V426.888ZM762.252 427.152C762.636 427.152 762.996 427.104 763.332 427.008C763.668 426.912 763.964 426.768 764.22 426.576C764.476 426.384 764.676 426.152 764.82 425.88C764.98 425.592 765.06 425.256 765.06 424.872V420.744C765.06 420.36 764.98 420.032 764.82 419.76C764.676 419.472 764.476 419.232 764.22 419.04C763.964 418.848 763.668 418.704 763.332 418.608C762.996 418.512 762.636 418.464 762.252 418.464C761.26 418.464 760.492 418.768 759.948 419.376C759.42 419.984 759.156 420.792 759.156 421.8V423.816C759.156 424.824 759.42 425.632 759.948 426.24C760.492 426.848 761.26 427.152 762.252 427.152ZM777.027 429.288C776.083 429.288 775.235 429.136 774.483 428.832C773.731 428.528 773.099 428.096 772.587 427.536C772.075 426.976 771.683 426.304 771.411 425.52C771.139 424.72 771.003 423.824 771.003 422.832C771.003 421.84 771.139 420.944 771.411 420.144C771.699 419.344 772.091 418.664 772.587 418.104C773.099 417.528 773.715 417.088 774.435 416.784C775.155 416.48 775.955 416.328 776.835 416.328C777.699 416.328 778.483 416.48 779.187 416.784C779.891 417.072 780.491 417.488 780.987 418.032C781.483 418.576 781.859 419.224 782.115 419.976C782.387 420.728 782.523 421.56 782.523 422.472V423.456H773.643V423.864C773.643 424.84 773.947 425.64 774.555 426.264C775.163 426.872 776.003 427.176 777.075 427.176C777.875 427.176 778.555 427.008 779.115 426.672C779.691 426.32 780.155 425.856 780.507 425.28L782.139 426.72C781.723 427.44 781.083 428.048 780.219 428.544C779.371 429.04 778.307 429.288 777.027 429.288ZM776.835 418.32C776.371 418.32 775.939 418.4 775.539 418.56C775.155 418.72 774.819 418.952 774.531 419.256C774.259 419.544 774.043 419.888 773.883 420.288C773.723 420.688 773.643 421.128 773.643 421.608V421.776H779.859V421.536C779.859 420.56 779.579 419.784 779.019 419.208C778.475 418.616 777.747 418.32 776.835 418.32ZM785.777 426.888H789.065V418.728H785.777V416.616H791.681V419.904H791.825C791.937 419.472 792.097 419.056 792.305 418.656C792.513 418.256 792.777 417.912 793.097 417.624C793.417 417.32 793.809 417.08 794.273 416.904C794.737 416.712 795.281 416.616 795.905 416.616H797.393V419.112H794.945C793.985 419.112 793.201 419.4 792.593 419.976C791.985 420.536 791.681 421.296 791.681 422.256V426.888H796.169V429H785.777V426.888ZM805.808 429.288C804.864 429.288 804.016 429.136 803.264 428.832C802.512 428.528 801.88 428.096 801.368 427.536C800.856 426.976 800.464 426.304 800.192 425.52C799.92 424.72 799.784 423.824 799.784 422.832C799.784 421.84 799.92 420.944 800.192 420.144C800.48 419.344 800.872 418.664 801.368 418.104C801.88 417.528 802.496 417.088 803.216 416.784C803.936 416.48 804.736 416.328 805.616 416.328C806.48 416.328 807.264 416.48 807.968 416.784C808.672 417.072 809.272 417.488 809.768 418.032C810.264 418.576 810.64 419.224 810.896 419.976C811.168 420.728 811.304 421.56 811.304 422.472V423.456H802.424V423.864C802.424 424.84 802.728 425.64 803.336 426.264C803.944 426.872 804.784 427.176 805.856 427.176C806.656 427.176 807.336 427.008 807.896 426.672C808.472 426.32 808.936 425.856 809.288 425.28L810.92 426.72C810.504 427.44 809.864 428.048 809 428.544C808.152 429.04 807.088 429.288 805.808 429.288ZM805.616 418.32C805.152 418.32 804.72 418.4 804.32 418.56C803.936 418.72 803.6 418.952 803.312 419.256C803.04 419.544 802.824 419.888 802.664 420.288C802.504 420.688 802.424 421.128 802.424 421.608V421.776H808.64V421.536C808.64 420.56 808.36 419.784 807.8 419.208C807.256 418.616 806.528 418.32 805.616 418.32ZM814.558 426.888H817.846V418.728H814.558V416.616H820.462V419.904H820.606C820.718 419.472 820.878 419.056 821.086 418.656C821.294 418.256 821.558 417.912 821.878 417.624C822.198 417.32 822.59 417.08 823.054 416.904C823.518 416.712 824.062 416.616 824.686 416.616H826.174V419.112H823.726C822.766 419.112 821.982 419.4 821.374 419.976C820.766 420.536 820.462 421.296 820.462 422.256V426.888H824.95V429H814.558V426.888ZM713.896 448.616H716.512V450.728H716.656C717.024 449.976 717.512 449.392 718.12 448.976C718.728 448.544 719.488 448.328 720.4 448.328C721.856 448.328 723.016 448.872 723.88 449.96C724.744 451.048 725.176 452.664 725.176 454.808C725.176 456.952 724.744 458.568 723.88 459.656C723.016 460.744 721.856 461.288 720.4 461.288C719.488 461.288 718.728 461.08 718.12 460.664C717.512 460.232 717.024 459.64 716.656 458.888H716.512V465.8H713.896V448.616ZM719.32 459.152C720.312 459.152 721.072 458.848 721.6 458.24C722.144 457.632 722.416 456.824 722.416 455.816V453.8C722.416 452.792 722.144 451.984 721.6 451.376C721.072 450.768 720.312 450.464 719.32 450.464C718.936 450.464 718.576 450.512 718.24 450.608C717.904 450.704 717.608 450.848 717.352 451.04C717.096 451.232 716.888 451.472 716.728 451.76C716.584 452.032 716.512 452.36 716.512 452.744V456.872C716.512 457.256 716.584 457.592 716.728 457.88C716.888 458.152 717.096 458.384 717.352 458.576C717.608 458.768 717.904 458.912 718.24 459.008C718.576 459.104 718.936 459.152 719.32 459.152ZM728.215 458.888H731.503V450.728H728.215V448.616H734.119V451.904H734.263C734.375 451.472 734.535 451.056 734.743 450.656C734.951 450.256 735.215 449.912 735.535 449.624C735.855 449.32 736.247 449.08 736.711 448.904C737.175 448.712 737.719 448.616 738.343 448.616H739.831V451.112H737.383C736.423 451.112 735.639 451.4 735.031 451.976C734.423 452.536 734.119 453.296 734.119 454.256V458.888H738.607V461H728.215V458.888ZM747.981 461.288C747.069 461.288 746.245 461.136 745.509 460.832C744.789 460.528 744.173 460.096 743.661 459.536C743.165 458.976 742.781 458.296 742.509 457.496C742.237 456.696 742.101 455.8 742.101 454.808C742.101 453.816 742.237 452.92 742.509 452.12C742.781 451.32 743.165 450.64 743.661 450.08C744.173 449.52 744.789 449.088 745.509 448.784C746.245 448.48 747.069 448.328 747.981 448.328C748.893 448.328 749.709 448.48 750.429 448.784C751.165 449.088 751.781 449.52 752.277 450.08C752.789 450.64 753.181 451.32 753.453 452.12C753.725 452.92 753.861 453.816 753.861 454.808C753.861 455.8 753.725 456.696 753.453 457.496C753.181 458.296 752.789 458.976 752.277 459.536C751.781 460.096 751.165 460.528 750.429 460.832C749.709 461.136 748.893 461.288 747.981 461.288ZM747.981 459.224C748.941 459.224 749.701 458.936 750.261 458.36C750.837 457.768 751.125 456.896 751.125 455.744V453.872C751.125 452.72 750.837 451.856 750.261 451.28C749.701 450.688 748.941 450.392 747.981 450.392C747.021 450.392 746.253 450.688 745.677 451.28C745.117 451.856 744.837 452.72 744.837 453.872V455.744C744.837 456.896 745.117 457.768 745.677 458.36C746.253 458.936 747.021 459.224 747.981 459.224ZM762.828 461.288C761.9 461.288 761.068 461.136 760.332 460.832C759.612 460.528 758.996 460.096 758.484 459.536C757.988 458.976 757.604 458.296 757.332 457.496C757.076 456.696 756.948 455.8 756.948 454.808C756.948 453.816 757.076 452.92 757.332 452.12C757.604 451.32 757.988 450.64 758.484 450.08C758.996 449.52 759.612 449.088 760.332 448.784C761.068 448.48 761.892 448.328 762.804 448.328C764.084 448.328 765.108 448.6 765.876 449.144C766.66 449.688 767.244 450.392 767.628 451.256L765.588 452.36C765.364 451.784 765.02 451.328 764.556 450.992C764.108 450.656 763.524 450.488 762.804 450.488C761.812 450.488 761.044 450.792 760.5 451.4C759.956 451.992 759.684 452.784 759.684 453.776V455.84C759.684 456.816 759.956 457.608 760.5 458.216C761.044 458.824 761.828 459.128 762.852 459.128C763.62 459.128 764.244 458.952 764.724 458.6C765.22 458.248 765.612 457.768 765.9 457.16L767.82 458.336C767.42 459.2 766.812 459.912 765.996 460.472C765.18 461.016 764.124 461.288 762.828 461.288ZM777.027 461.288C776.083 461.288 775.235 461.136 774.483 460.832C773.731 460.528 773.099 460.096 772.587 459.536C772.075 458.976 771.683 458.304 771.411 457.52C771.139 456.72 771.003 455.824 771.003 454.832C771.003 453.84 771.139 452.944 771.411 452.144C771.699 451.344 772.091 450.664 772.587 450.104C773.099 449.528 773.715 449.088 774.435 448.784C775.155 448.48 775.955 448.328 776.835 448.328C777.699 448.328 778.483 448.48 779.187 448.784C779.891 449.072 780.491 449.488 780.987 450.032C781.483 450.576 781.859 451.224 782.115 451.976C782.387 452.728 782.523 453.56 782.523 454.472V455.456H773.643V455.864C773.643 456.84 773.947 457.64 774.555 458.264C775.163 458.872 776.003 459.176 777.075 459.176C777.875 459.176 778.555 459.008 779.115 458.672C779.691 458.32 780.155 457.856 780.507 457.28L782.139 458.72C781.723 459.44 781.083 460.048 780.219 460.544C779.371 461.04 778.307 461.288 777.027 461.288ZM776.835 450.32C776.371 450.32 775.939 450.4 775.539 450.56C775.155 450.72 774.819 450.952 774.531 451.256C774.259 451.544 774.043 451.888 773.883 452.288C773.723 452.688 773.643 453.128 773.643 453.608V453.776H779.859V453.536C779.859 452.56 779.579 451.784 779.019 451.208C778.475 450.616 777.747 450.32 776.835 450.32ZM791.177 461.288C789.833 461.288 788.673 461.072 787.697 460.64C786.737 460.208 785.961 459.632 785.369 458.912L786.977 457.472C787.521 458.064 788.129 458.52 788.801 458.84C789.489 459.144 790.297 459.296 791.225 459.296C792.073 459.296 792.753 459.152 793.265 458.864C793.793 458.576 794.057 458.128 794.057 457.52C794.057 457.264 794.009 457.048 793.913 456.872C793.817 456.696 793.681 456.552 793.505 456.44C793.329 456.328 793.121 456.24 792.881 456.176C792.657 456.112 792.417 456.064 792.161 456.032L790.193 455.72C789.713 455.656 789.225 455.552 788.729 455.408C788.233 455.264 787.785 455.064 787.385 454.808C787.001 454.536 786.681 454.192 786.425 453.776C786.185 453.36 786.065 452.832 786.065 452.192C786.065 450.928 786.545 449.968 787.505 449.312C788.481 448.656 789.761 448.328 791.345 448.328C792.497 448.328 793.489 448.504 794.321 448.856C795.169 449.192 795.873 449.664 796.433 450.272L794.969 451.808C794.649 451.44 794.193 451.104 793.601 450.8C793.009 450.48 792.225 450.32 791.249 450.32C789.505 450.32 788.633 450.872 788.633 451.976C788.633 452.504 788.817 452.872 789.185 453.08C789.569 453.272 790.017 453.4 790.529 453.464L792.497 453.776C792.993 453.856 793.481 453.96 793.961 454.088C794.457 454.216 794.897 454.416 795.281 454.688C795.681 454.944 796.001 455.28 796.241 455.696C796.497 456.112 796.625 456.64 796.625 457.28C796.625 458.528 796.137 459.512 795.161 460.232C794.201 460.936 792.873 461.288 791.177 461.288ZM805.568 461.288C804.224 461.288 803.064 461.072 802.088 460.64C801.128 460.208 800.352 459.632 799.76 458.912L801.368 457.472C801.912 458.064 802.52 458.52 803.192 458.84C803.88 459.144 804.688 459.296 805.616 459.296C806.464 459.296 807.144 459.152 807.656 458.864C808.184 458.576 808.448 458.128 808.448 457.52C808.448 457.264 808.4 457.048 808.304 456.872C808.208 456.696 808.072 456.552 807.896 456.44C807.72 456.328 807.512 456.24 807.272 456.176C807.048 456.112 806.808 456.064 806.552 456.032L804.584 455.72C804.104 455.656 803.616 455.552 803.12 455.408C802.624 455.264 802.176 455.064 801.776 454.808C801.392 454.536 801.072 454.192 800.816 453.776C800.576 453.36 800.456 452.832 800.456 452.192C800.456 450.928 800.936 449.968 801.896 449.312C802.872 448.656 804.152 448.328 805.736 448.328C806.888 448.328 807.88 448.504 808.712 448.856C809.56 449.192 810.264 449.664 810.824 450.272L809.36 451.808C809.04 451.44 808.584 451.104 807.992 450.8C807.4 450.48 806.616 450.32 805.64 450.32C803.896 450.32 803.024 450.872 803.024 451.976C803.024 452.504 803.208 452.872 803.576 453.08C803.96 453.272 804.408 453.4 804.92 453.464L806.888 453.776C807.384 453.856 807.872 453.96 808.352 454.088C808.848 454.216 809.288 454.416 809.672 454.688C810.072 454.944 810.392 455.28 810.632 455.696C810.888 456.112 811.016 456.64 811.016 457.28C811.016 458.528 810.528 459.512 809.552 460.232C808.592 460.936 807.264 461.288 805.568 461.288Z" fill="#EEE"/>
<mask id="mask0_147_155" style="mask-type:alpha" maskUnits="userSpaceOnUse" x="703" y="236" width="18" height="152">
<path d="M712.795 237.205C712.356 236.765 711.644 236.765 711.205 237.205L704.045 244.364C703.606 244.803 703.606 245.516 704.045 245.955C704.484 246.394 705.197 246.394 705.636 245.955L712 239.591L718.364 245.955C718.803 246.394 719.516 246.394 719.955 245.955C720.394 245.516 720.394 244.803 719.955 244.364L712.795 237.205ZM711.204 386.796C711.644 387.235 712.356 387.235 712.795 386.796L719.955 379.636C720.394 379.197 720.394 378.484 719.955 378.045C719.516 377.606 718.803 377.606 718.364 378.045L712 384.409L705.636 378.045C705.197 377.606 704.484 377.606 704.045 378.045C703.606 378.484 703.606 379.197 704.045 379.636L711.204 386.796ZM710.875 239.973C710.875 240.595 711.379 241.098 712 241.098C712.621 241.098 713.125 240.595 713.125 239.973L710.875 239.973ZM713.125 245.893C713.125 245.272 712.621 244.768 712 244.768C711.379 244.768 710.875 245.272 710.875 245.893L713.125 245.893ZM710.875 249.84C710.875 250.461 711.379 250.965 712 250.965C712.621 250.965 713.125 250.461 713.125 249.84L710.875 249.84ZM713.125 255.76C713.125 255.139 712.621 254.635 712 254.635C711.379 254.635 710.875 255.139 710.875 255.76L713.125 255.76ZM710.875 259.707C710.875 260.328 711.379 260.832 712 260.832C712.621 260.832 713.125 260.328 713.125 259.707L710.875 259.707ZM713.125 265.627C713.125 265.005 712.621 264.502 712 264.502C711.379 264.502 710.875 265.005 710.875 265.627L713.125 265.627ZM710.875 269.573C710.875 270.195 711.379 270.698 712 270.698C712.621 270.698 713.125 270.195 713.125 269.573L710.875 269.573ZM713.125 275.493C713.125 274.872 712.621 274.368 712 274.368C711.379 274.368 710.875 274.872 710.875 275.493L713.125 275.493ZM710.875 279.44C710.875 280.061 711.379 280.565 712 280.565C712.621 280.565 713.125 280.061 713.125 279.44L710.875 279.44ZM713.125 285.36C713.125 284.739 712.621 284.235 712 284.235C711.379 284.235 710.875 284.739 710.875 285.36L713.125 285.36ZM710.875 289.307C710.875 289.928 711.379 290.432 712 290.432C712.621 290.432 713.125 289.928 713.125 289.307L710.875 289.307ZM713.125 295.227C713.125 294.605 712.621 294.102 712 294.102C711.379 294.102 710.875 294.605 710.875 295.227L713.125 295.227ZM710.875 299.173C710.875 299.795 711.379 300.298 712 300.298C712.621 300.298 713.125 299.795 713.125 299.173L710.875 299.173ZM713.125 305.093C713.125 304.472 712.621 303.968 712 303.968C711.379 303.968 710.875 304.472 710.875 305.093L713.125 305.093ZM710.875 309.04C710.875 309.661 711.379 310.165 712 310.165C712.621 310.165 713.125 309.661 713.125 309.04L710.875 309.04ZM713.125 314.96C713.125 314.339 712.621 313.835 712 313.835C711.379 313.835 710.875 314.339 710.875 314.96L713.125 314.96ZM710.875 318.907C710.875 319.528 711.379 320.032 712 320.032C712.621 320.032 713.125 319.528 713.125 318.907L710.875 318.907ZM713.125 324.827C713.125 324.205 712.621 323.702 712 323.702C711.379 323.702 710.875 324.205 710.875 324.827L713.125 324.827ZM710.875 328.773C710.875 329.395 711.379 329.898 712 329.898C712.621 329.898 713.125 329.395 713.125 328.773L710.875 328.773ZM713.125 334.693C713.125 334.072 712.621 333.568 712 333.568C711.379 333.568 710.875 334.072 710.875 334.693L713.125 334.693ZM710.875 338.64C710.875 339.261 711.379 339.765 712 339.765C712.621 339.765 713.125 339.261 713.125 338.64L710.875 338.64ZM713.125 344.56C713.125 343.939 712.621 343.435 712 343.435C711.379 343.435 710.875 343.939 710.875 344.56L713.125 344.56ZM710.875 348.507C710.875 349.128 711.379 349.632 712 349.632C712.621 349.632 713.125 349.128 713.125 348.507L710.875 348.507ZM713.125 354.427C713.125 353.805 712.621 353.302 712 353.302C711.379 353.302 710.875 353.805 710.875 354.427L713.125 354.427ZM710.875 358.373C710.875 358.995 711.379 359.498 712 359.498C712.621 359.498 713.125 358.995 713.125 358.373L710.875 358.373ZM713.125 364.293C713.125 363.672 712.621 363.168 712 363.168C711.379 363.168 710.875 363.672 710.875 364.293L713.125 364.293ZM710.875 368.24C710.875 368.861 711.379 369.365 712 369.365C712.621 369.365 713.125 368.861 713.125 368.24L710.875 368.24ZM713.125 374.16C713.125 373.539 712.621 373.035 712 373.035C711.379 373.035 710.875 373.539 710.875 374.16L713.125 374.16ZM710.875 378.107C710.875 378.728 711.379 379.232 712 379.232C712.621 379.232 713.125 378.728 713.125 378.107L710.875 378.107ZM713.125 384.027C713.125 383.405 712.621 382.902 712 382.902C711.379 382.902 710.875 383.405 710.875 384.027L713.125 384.027ZM710.875 238L710.875 239.973L713.125 239.973L713.125 238L710.875 238ZM710.875 245.893L710.875 249.84L713.125 249.84L713.125 245.893L710.875 245.893ZM710.875 255.76L710.875 259.707L713.125 259.707L713.125 255.76L710.875 255.76ZM710.875 265.627L710.875 269.573L713.125 269.573L713.125 265.627L710.875 265.627ZM710.875 275.493L710.875 279.44L713.125 279.44L713.125 275.493L710.875 275.493ZM710.875 285.36L710.875 289.307L713.125 289.307L713.125 285.36L710.875 285.36ZM710.875 295.227L710.875 299.173L713.125 299.173L713.125 295.227L710.875 295.227ZM710.875 305.093L710.875 309.04L713.125 309.04L713.125 305.093L710.875 305.093ZM710.875 314.96L710.875 318.907L713.125 318.907L713.125 314.96L710.875 314.96ZM710.875 324.827L710.875 328.773L713.125 328.773L713.125 324.827L710.875 324.827ZM710.875 334.693L710.875 338.64L713.125 338.64L713.125 334.693L710.875 334.693ZM710.875 344.56L710.875 348.507L713.125 348.507L713.125 344.56L710.875 344.56ZM710.875 354.427L710.875 358.373L713.125 358.373L713.125 354.427L710.875 354.427ZM710.875 364.293L710.875 368.24L713.125 368.24L713.125 364.293L710.875 364.293ZM710.875 374.16L710.875 378.107L713.125 378.107L713.125 374.16L710.875 374.16ZM710.875 384.027L710.875 386L713.125 386L713.125 384.027L710.875 384.027Z" fill="#EEE"/>
</mask>
<g mask="url(#mask0_147_155)">
<path fill-rule="evenodd" clip-rule="evenodd" d="M740 230H688V287H740V230ZM740 335H688V392H740V335Z" fill="#D9D9D9"/>
</g>
<path d="M875.997 439.915C878.359 439.915 880.275 438 880.275 435.637C880.275 433.275 878.359 431.359 875.997 431.359C873.634 431.359 871.719 433.275 871.719 435.637C871.719 438 873.634 439.915 875.997 439.915Z" fill="#EEE"/>
<path fill-rule="evenodd" clip-rule="evenodd" d="M855.546 433.001C854.514 433.933 854.087 434.826 854.087 435.638C854.087 436.45 854.514 437.343 855.546 438.275C856.579 439.207 858.131 440.094 860.139 440.861C864.146 442.391 869.753 443.359 875.998 443.359C882.243 443.359 887.849 442.391 891.857 440.861C893.864 440.094 895.417 439.207 896.449 438.275C897.482 437.343 897.909 436.45 897.909 435.638C897.909 434.826 897.482 433.933 896.449 433.001C895.417 432.069 893.864 431.182 891.857 430.415C887.849 428.885 882.243 427.917 875.998 427.917C869.753 427.917 864.146 428.885 860.139 430.415C858.131 431.182 856.579 432.069 855.546 433.001ZM859.394 428.466C863.695 426.824 869.565 425.83 875.998 425.83C882.43 425.83 888.301 426.824 892.601 428.466C894.748 429.285 896.557 430.287 897.848 431.452C899.138 432.617 899.996 434.03 899.996 435.638C899.996 437.246 899.138 438.659 897.848 439.824C896.557 440.989 894.748 441.99 892.601 442.81C888.301 444.452 882.43 445.446 875.998 445.446C869.565 445.446 863.695 444.452 859.394 442.81C857.248 441.99 855.439 440.989 854.148 439.824C852.858 438.659 852 437.246 852 435.638C852 434.03 852.858 432.617 854.148 431.452C855.439 430.287 857.248 429.285 859.394 428.466Z" fill="#EEE"/>
<path fill-rule="evenodd" clip-rule="evenodd" d="M868.056 416.608C866.733 416.18 865.746 416.256 865.043 416.662C864.339 417.068 863.78 417.885 863.489 419.245C863.198 420.605 863.206 422.393 863.546 424.515C864.224 428.75 866.189 434.09 869.312 439.498C872.434 444.907 876.076 449.278 879.405 451.984C881.072 453.339 882.617 454.24 883.94 454.668C885.264 455.096 886.251 455.019 886.954 454.613C887.657 454.207 888.217 453.391 888.508 452.031C888.799 450.671 888.791 448.882 888.451 446.761C887.772 442.525 885.807 437.186 882.685 431.777C879.562 426.369 875.921 421.998 872.592 419.292C870.924 417.937 869.38 417.036 868.056 416.608ZM873.908 417.673C877.48 420.576 881.276 425.163 884.492 430.734C887.708 436.305 889.783 441.886 890.511 446.431C890.875 448.7 890.912 450.767 890.548 452.467C890.185 454.167 889.39 455.616 887.997 456.421C886.604 457.225 884.952 457.188 883.298 456.653C881.644 456.118 879.872 455.052 878.089 453.603C874.517 450.7 870.721 446.112 867.504 440.542C864.288 434.971 862.214 429.39 861.485 424.845C861.122 422.576 861.085 420.509 861.448 418.808C861.812 417.108 862.607 415.659 863.999 414.855C865.392 414.051 867.044 414.087 868.699 414.622C870.353 415.158 872.125 416.224 873.908 417.673Z" fill="#EEE"/>
<path fill-rule="evenodd" clip-rule="evenodd" d="M888.508 419.246C888.217 417.885 887.657 417.069 886.954 416.663C886.251 416.257 885.264 416.18 883.94 416.609C882.617 417.037 881.072 417.938 879.405 419.293C876.076 421.998 872.434 426.37 869.312 431.778C866.189 437.186 864.225 442.526 863.546 446.762C863.206 448.883 863.198 450.671 863.489 452.032C863.78 453.392 864.34 454.208 865.043 454.614C865.746 455.02 866.733 455.097 868.056 454.669C869.38 454.24 870.924 453.339 872.592 451.984C875.921 449.279 879.563 444.907 882.685 439.499C885.808 434.091 887.772 428.751 888.451 424.516C888.791 422.394 888.799 420.606 888.508 419.246ZM890.511 424.846C889.783 429.391 887.709 434.972 884.492 440.543C881.276 446.113 877.48 450.7 873.908 453.604C872.125 455.053 870.353 456.119 868.699 456.654C867.045 457.189 865.392 457.225 864 456.421C862.607 455.617 861.812 454.168 861.448 452.468C861.085 450.768 861.122 448.7 861.485 446.432C862.214 441.886 864.288 436.305 867.505 430.735C870.721 425.164 874.517 420.577 878.089 417.674C879.872 416.224 881.644 415.158 883.298 414.623C884.952 414.088 886.605 414.052 887.997 414.856C889.39 415.66 890.185 417.109 890.549 418.809C890.912 420.509 890.875 422.577 890.511 424.846Z" fill="#EEE"/>
<path d="M915.595 442.07V437.981H911.711V436.152H915.595V432.062H917.609V436.152H921.492V437.981H917.609V442.07H915.595Z" fill="#EEE"/>
<path d="M967.123 444.638C968.911 444.453 970.267 442.912 970.205 441.062C970.144 439.213 968.602 437.733 966.753 437.733H966.63C964.718 437.795 963.239 439.398 963.301 441.309C963.362 442.234 963.732 443.035 964.287 443.59C962.191 447.72 958.985 450.741 954.177 453.269C950.909 454.995 947.519 455.611 944.128 455.18C941.354 454.81 939.196 453.577 937.84 451.542C935.867 448.522 935.682 445.254 937.347 441.987C938.518 439.644 940.368 437.918 941.539 437.055C941.292 436.254 940.922 434.898 940.737 433.911C931.798 440.384 932.723 449.138 935.436 453.269C937.47 456.351 941.6 458.262 946.162 458.262C947.395 458.262 948.628 458.139 949.861 457.831C957.752 456.289 963.732 451.604 967.123 444.638Z" fill="#EEE"/>
<path d="M977.972 436.995C973.287 431.508 966.382 428.487 958.492 428.487H957.505C956.95 427.377 955.779 426.638 954.484 426.638H954.361C952.45 426.699 950.97 428.302 951.032 430.213C951.094 432.063 952.635 433.542 954.484 433.542H954.608C955.964 433.481 957.135 432.618 957.628 431.446H958.738C963.423 431.446 967.862 432.802 971.869 435.453C974.952 437.488 977.171 440.139 978.404 443.344C979.452 445.934 979.39 448.461 978.281 450.619C976.554 453.886 973.657 455.674 969.835 455.674C967.369 455.674 965.026 454.934 963.793 454.379C963.115 454.996 961.882 455.982 961.019 456.599C963.67 457.832 966.382 458.51 968.972 458.51C974.89 458.51 979.267 455.242 980.931 451.975C982.719 448.399 982.596 442.235 977.972 436.995Z" fill="#EEE"/>
<path d="M946.655 445.686C946.716 447.536 948.258 449.015 950.107 449.015H950.23C952.141 448.953 953.621 447.351 953.559 445.44C953.498 443.59 951.956 442.111 950.107 442.111H949.984C949.86 442.111 949.675 442.111 949.552 442.172C947.025 437.98 945.977 433.418 946.346 428.486C946.593 424.787 947.826 421.582 949.984 418.931C951.771 416.65 955.224 415.54 957.566 415.479C964.101 415.355 966.875 423.493 967.06 426.76C967.862 426.945 969.218 427.377 970.143 427.685C969.403 417.698 963.238 412.52 957.32 412.52C951.771 412.52 946.655 416.527 944.62 422.445C941.784 430.336 943.634 437.919 947.086 443.898C946.778 444.33 946.593 445.008 946.655 445.686Z" fill="#EEE"/>
<path d="M709.424 313.648V309.928C710.72 309.88 711.744 309.624 712.496 309.16C713.248 308.68 713.624 307.936 713.624 306.928V306.592C713.624 305.792 713.384 305.2 712.904 304.816C712.44 304.432 711.816 304.24 711.032 304.24C710.2 304.24 709.528 304.48 709.016 304.96C708.504 305.424 708.152 306.016 707.96 306.736L705.68 305.824C705.824 305.328 706.04 304.848 706.328 304.384C706.632 303.904 707 303.488 707.432 303.136C707.88 302.784 708.408 302.504 709.016 302.296C709.624 302.072 710.328 301.96 711.128 301.96C711.928 301.96 712.648 302.072 713.288 302.296C713.944 302.52 714.504 302.84 714.968 303.256C715.432 303.656 715.784 304.152 716.024 304.744C716.28 305.32 716.408 305.96 716.408 306.664C716.408 307.384 716.28 308.024 716.024 308.584C715.768 309.144 715.432 309.624 715.016 310.024C714.6 310.424 714.12 310.752 713.576 311.008C713.048 311.264 712.504 311.44 711.944 311.536V313.648H709.424ZM710.744 319.24C710.008 319.24 709.488 319.088 709.184 318.784C708.88 318.48 708.728 318.096 708.728 317.632V317.056C708.728 316.592 708.88 316.208 709.184 315.904C709.488 315.6 710.008 315.448 710.744 315.448C711.48 315.448 712 315.6 712.304 315.904C712.608 316.208 712.76 316.592 712.76 317.056V317.632C712.76 318.096 712.608 318.48 712.304 318.784C712 319.088 711.48 319.24 710.744 319.24Z" fill="#EEE"/>
<mask id="mask1_147_155" style="mask-type:alpha" maskUnits="userSpaceOnUse" x="469" y="299" width="182" height="18">
<path d="M649.795 308.795C650.235 308.356 650.235 307.644 649.795 307.205L642.636 300.045C642.197 299.606 641.484 299.606 641.045 300.045C640.606 300.484 640.606 301.197 641.045 301.636L647.409 308L641.045 314.364C640.606 314.803 640.606 315.516 641.045 315.955C641.484 316.394 642.197 316.394 642.636 315.955L649.795 308.795ZM470.204 307.205C469.765 307.644 469.765 308.356 470.204 308.795L477.364 315.955C477.803 316.394 478.516 316.394 478.955 315.955C479.394 315.516 479.394 314.803 478.955 314.364L472.591 308L478.955 301.636C479.394 301.197 479.394 300.484 478.955 300.045C478.516 299.606 477.803 299.606 477.364 300.045L470.204 307.205ZM647.022 306.875C646.401 306.875 645.897 307.379 645.897 308C645.897 308.621 646.401 309.125 647.022 309.125V306.875ZM641.089 309.125C641.71 309.125 642.214 308.621 642.214 308C642.214 307.379 641.71 306.875 641.089 306.875V309.125ZM637.133 306.875C636.512 306.875 636.008 307.379 636.008 308C636.008 308.621 636.512 309.125 637.133 309.125V306.875ZM631.2 309.125C631.821 309.125 632.325 308.621 632.325 308C632.325 307.379 631.821 306.875 631.2 306.875V309.125ZM627.244 306.875C626.623 306.875 626.119 307.379 626.119 308C626.119 308.621 626.623 309.125 627.244 309.125V306.875ZM621.311 309.125C621.932 309.125 622.436 308.621 622.436 308C622.436 307.379 621.932 306.875 621.311 306.875V309.125ZM617.356 306.875C616.734 306.875 616.231 307.379 616.231 308C616.231 308.621 616.734 309.125 617.356 309.125V306.875ZM611.422 309.125C612.044 309.125 612.547 308.621 612.547 308C612.547 307.379 612.044 306.875 611.422 306.875V309.125ZM607.467 306.875C606.845 306.875 606.342 307.379 606.342 308C606.342 308.621 606.845 309.125 607.467 309.125V306.875ZM601.533 309.125C602.155 309.125 602.658 308.621 602.658 308C602.658 307.379 602.155 306.875 601.533 306.875V309.125ZM597.578 306.875C596.956 306.875 596.453 307.379 596.453 308C596.453 308.621 596.956 309.125 597.578 309.125V306.875ZM591.644 309.125C592.266 309.125 592.769 308.621 592.769 308C592.769 307.379 592.266 306.875 591.644 306.875V309.125ZM587.689 306.875C587.068 306.875 586.564 307.379 586.564 308C586.564 308.621 587.068 309.125 587.689 309.125V306.875ZM581.756 309.125C582.377 309.125 582.881 308.621 582.881 308C582.881 307.379 582.377 306.875 581.756 306.875V309.125ZM577.8 306.875C577.179 306.875 576.675 307.379 576.675 308C576.675 308.621 577.179 309.125 577.8 309.125V306.875ZM571.867 309.125C572.488 309.125 572.992 308.621 572.992 308C572.992 307.379 572.488 306.875 571.867 306.875V309.125ZM567.911 306.875C567.29 306.875 566.786 307.379 566.786 308C566.786 308.621 567.29 309.125 567.911 309.125V306.875ZM561.978 309.125C562.599 309.125 563.103 308.621 563.103 308C563.103 307.379 562.599 306.875 561.978 306.875V309.125ZM558.022 306.875C557.401 306.875 556.897 307.379 556.897 308C556.897 308.621 557.401 309.125 558.022 309.125V306.875ZM552.089 309.125C552.71 309.125 553.214 308.621 553.214 308C553.214 307.379 552.71 306.875 552.089 306.875V309.125ZM548.133 306.875C547.512 306.875 547.008 307.379 547.008 308C547.008 308.621 547.512 309.125 548.133 309.125V306.875ZM542.2 309.125C542.821 309.125 543.325 308.621 543.325 308C543.325 307.379 542.821 306.875 542.2 306.875V309.125ZM538.244 306.875C537.623 306.875 537.119 307.379 537.119 308C537.119 308.621 537.623 309.125 538.244 309.125V306.875ZM532.311 309.125C532.932 309.125 533.436 308.621 533.436 308C533.436 307.379 532.932 306.875 532.311 306.875V309.125ZM528.356 306.875C527.734 306.875 527.231 307.379 527.231 308C527.231 308.621 527.734 309.125 528.356 309.125V306.875ZM522.422 309.125C523.044 309.125 523.547 308.621 523.547 308C523.547 307.379 523.044 306.875 522.422 306.875V309.125ZM518.467 306.875C517.845 306.875 517.342 307.379 517.342 308C517.342 308.621 517.845 309.125 518.467 309.125V306.875ZM512.533 309.125C513.155 309.125 513.658 308.621 513.658 308C513.658 307.379 513.155 306.875 512.533 306.875V309.125ZM508.578 306.875C507.956 306.875 507.453 307.379 507.453 308C507.453 308.621 507.956 309.125 508.578 309.125V306.875ZM502.644 309.125C503.266 309.125 503.769 308.621 503.769 308C503.769 307.379 503.266 306.875 502.644 306.875V309.125ZM498.689 306.875C498.068 306.875 497.564 307.379 497.564 308C497.564 308.621 498.068 309.125 498.689 309.125V306.875ZM492.756 309.125C493.377 309.125 493.881 308.621 493.881 308C493.881 307.379 493.377 306.875 492.756 306.875V309.125ZM488.8 306.875C488.179 306.875 487.675 307.379 487.675 308C487.675 308.621 488.179 309.125 488.8 309.125V306.875ZM482.867 309.125C483.488 309.125 483.992 308.621 483.992 308C483.992 307.379 483.488 306.875 482.867 306.875V309.125ZM478.911 306.875C478.29 306.875 477.786 307.379 477.786 308C477.786 308.621 478.29 309.125 478.911 309.125V306.875ZM472.978 309.125C473.599 309.125 474.103 308.621 474.103 308C474.103 307.379 473.599 306.875 472.978 306.875V309.125ZM649 306.875H647.022V309.125H649V306.875ZM641.089 306.875H637.133V309.125H641.089V306.875ZM631.2 306.875H627.244V309.125H631.2V306.875ZM621.311 306.875H617.356V309.125H621.311V306.875ZM611.422 306.875H607.467V309.125H611.422V306.875ZM601.533 306.875H597.578V309.125H601.533V306.875ZM591.644 306.875H587.689V309.125H591.644V306.875ZM581.756 306.875H577.8V309.125H581.756V306.875ZM571.867 306.875H567.911V309.125H571.867V306.875ZM561.978 306.875H558.022V309.125H561.978V306.875ZM552.089 306.875H548.133V309.125H552.089V306.875ZM542.2 306.875H538.244V309.125H542.2V306.875ZM532.311 306.875H528.356V309.125H532.311V306.875ZM522.422 306.875H518.467V309.125H522.422V306.875ZM512.533 306.875H508.578V309.125H512.533V306.875ZM502.644 306.875H498.689V309.125H502.644V306.875ZM492.756 306.875H488.8V309.125H492.756V306.875ZM482.867 306.875H478.911V309.125H482.867V306.875ZM472.978 306.875H471V309.125H472.978V306.875Z" fill="#EEE"/>
</mask>
<g mask="url(#mask1_147_155)">
<path fill-rule="evenodd" clip-rule="evenodd" d="M656 336L656 284L585 284L585 336L537 336L537 284L464 284L464 336L656 336Z" fill="#D9D9D9"/>
</g>
<path d="M557.424 311.648V307.928C558.72 307.88 559.744 307.624 560.496 307.16C561.248 306.68 561.624 305.936 561.624 304.928V304.592C561.624 303.792 561.384 303.2 560.904 302.816C560.44 302.432 559.816 302.24 559.032 302.24C558.2 302.24 557.528 302.48 557.016 302.96C556.504 303.424 556.152 304.016 555.96 304.736L553.68 303.824C553.824 303.328 554.04 302.848 554.328 302.384C554.632 301.904 555 301.488 555.432 301.136C555.88 300.784 556.408 300.504 557.016 300.296C557.624 300.072 558.328 299.96 559.128 299.96C559.928 299.96 560.648 300.072 561.288 300.296C561.944 300.52 562.504 300.84 562.968 301.256C563.432 301.656 563.784 302.152 564.024 302.744C564.28 303.32 564.408 303.96 564.408 304.664C564.408 305.384 564.28 306.024 564.024 306.584C563.768 307.144 563.432 307.624 563.016 308.024C562.6 308.424 562.12 308.752 561.576 309.008C561.048 309.264 560.504 309.44 559.944 309.536V311.648H557.424ZM558.744 317.24C558.008 317.24 557.488 317.088 557.184 316.784C556.88 316.48 556.728 316.096 556.728 315.632V315.056C556.728 314.592 556.88 314.208 557.184 313.904C557.488 313.6 558.008 313.448 558.744 313.448C559.48 313.448 560 313.6 560.304 313.904C560.608 314.208 560.76 314.592 560.76 315.056V315.632C560.76 316.096 560.608 316.48 560.304 316.784C560 317.088 559.48 317.24 558.744 317.24Z" fill="#EEE"/>
</svg>
